<svg width="32" height="32" viewBox="0 0 32 32" fill="none" xmlns="http://www.w3.org/2000/svg">
<rect x="0.5" y="4.5" width="31" height="23" rx="1.5" fill="white" stroke="url(#paint0_linear)"/>
<mask id="mask0" mask-type="alpha" maskUnits="userSpaceOnUse" x="0" y="4" width="32" height="24">
<rect x="0.5" y="4.5" width="31" height="23" rx="1.5" fill="white" stroke="white"/>
</mask>
<g mask="url(#mask0)">
<rect y="4" width="32" height="4" fill="#1D70DE"/>
<rect y="8" width="32" height="16" fill="url(#paint1_linear)"/>
<path opacity="0.465355" fill-rule="evenodd" clip-rule="evenodd" d="M3.22933 24.8521L2.19733 25.3867V25.4854L3.22933 26.0214V25.8507C3.22933 25.8365 3.22578 25.8236 3.21867 25.8121C3.21156 25.8005 3.19911 25.7903 3.18133 25.7814L2.55517 25.4661L2.49517 25.4451L2.46267 25.4374L2.526 25.4194C2.546 25.4127 2.56489 25.4045 2.58267 25.3947L3.18133 25.0907C3.19911 25.0818 3.21156 25.0718 3.21867 25.0607C3.22578 25.0496 3.22933 25.0365 3.22933 25.0214V24.8521ZM4.776 24.8521L3.744 25.3867V25.4854L4.776 26.0214V25.8507C4.776 25.8365 4.77245 25.8236 4.76533 25.8121C4.75822 25.8005 4.74578 25.7903 4.728 25.7814L4.10183 25.4661L4.04183 25.4451L4.00933 25.4374L4.07267 25.4194C4.09267 25.4127 4.11156 25.4045 4.12933 25.3947L4.728 25.0907C4.74578 25.0818 4.75822 25.0718 4.76533 25.0607C4.77245 25.0496 4.776 25.0365 4.776 25.0214V24.8521ZM5.29067 25.3867L6.32267 24.8521V25.0214C6.32267 25.0365 6.31911 25.0496 6.312 25.0607C6.30489 25.0718 6.29245 25.0818 6.27467 25.0907L5.676 25.3947C5.65822 25.4045 5.63933 25.4127 5.61933 25.4194L5.556 25.4374L5.5885 25.4451L5.6485 25.4661L6.27467 25.7814C6.29245 25.7903 6.30489 25.8005 6.312 25.8121C6.31911 25.8236 6.32267 25.8365 6.32267 25.8507V26.0214L5.29067 25.4854V25.3867ZM7.86933 24.8521L6.83733 25.3867V25.4854L7.86933 26.0214V25.8507C7.86933 25.8365 7.86578 25.8236 7.85867 25.8121C7.85156 25.8005 7.83911 25.7903 7.82133 25.7814L7.19517 25.4661L7.13517 25.4451L7.10267 25.4374L7.166 25.4194C7.186 25.4127 7.20489 25.4045 7.22267 25.3947L7.82133 25.0907C7.83911 25.0818 7.85156 25.0718 7.85867 25.0607C7.86578 25.0496 7.86933 25.0365 7.86933 25.0214V24.8521ZM8.384 25.3867L9.416 24.8521V25.0214C9.416 25.0365 9.41245 25.0496 9.40533 25.0607C9.39822 25.0718 9.38578 25.0818 9.368 25.0907L8.76933 25.3947C8.75156 25.4045 8.73267 25.4127 8.71267 25.4194L8.64933 25.4374L8.68183 25.4451L8.74183 25.4661L9.368 25.7814C9.38578 25.7903 9.39822 25.8005 9.40533 25.8121C9.41245 25.8236 9.416 25.8365 9.416 25.8507V26.0214L8.384 25.4854V25.3867ZM10.9627 24.8521L9.93067 25.3867V25.4854L10.9627 26.0214V25.8507C10.9627 25.8365 10.9591 25.8236 10.952 25.8121C10.9449 25.8005 10.9324 25.7903 10.9147 25.7814L10.2885 25.4661L10.2285 25.4451L10.196 25.4374L10.2593 25.4194C10.2793 25.4127 10.2982 25.4045 10.316 25.3947L10.9147 25.0907C10.9324 25.0818 10.9449 25.0718 10.952 25.0607C10.9591 25.0496 10.9627 25.0365 10.9627 25.0214V24.8521ZM11.4773 25.3867L12.5093 24.8521V25.0214C12.5093 25.0365 12.5058 25.0496 12.4987 25.0607C12.4916 25.0718 12.4791 25.0818 12.4613 25.0907L11.8627 25.3947C11.8449 25.4045 11.826 25.4127 11.806 25.4194L11.7427 25.4374L11.7752 25.4451L11.8352 25.4661L12.4613 25.7814C12.4791 25.7903 12.4916 25.8005 12.4987 25.8121C12.5058 25.8236 12.5093 25.8365 12.5093 25.8507V26.0214L11.4773 25.4854V25.3867ZM14.056 24.8521L13.024 25.3867V25.4854L14.056 26.0214V25.8507C14.056 25.8365 14.0524 25.8236 14.0453 25.8121C14.0382 25.8005 14.0258 25.7903 14.008 25.7814L13.3818 25.4661L13.3218 25.4451L13.2893 25.4374L13.3527 25.4194C13.3727 25.4127 13.3916 25.4045 13.4093 25.3947L14.008 25.0907C14.0258 25.0818 14.0382 25.0718 14.0453 25.0607C14.0524 25.0496 14.056 25.0365 14.056 25.0214V24.8521ZM14.5707 25.3867L15.6027 24.8521V25.0214C15.6027 25.0365 15.5991 25.0496 15.592 25.0607C15.5849 25.0718 15.5724 25.0818 15.5547 25.0907L14.956 25.3947C14.9382 25.4045 14.9193 25.4127 14.8993 25.4194L14.836 25.4374L14.8685 25.4451L14.9285 25.4661L15.5547 25.7814C15.5724 25.7903 15.5849 25.8005 15.592 25.8121C15.5991 25.8236 15.6027 25.8365 15.6027 25.8507V26.0214L14.5707 25.4854V25.3867ZM17.1493 24.8521L16.1173 25.3867V25.4854L17.1493 26.0214V25.8507C17.1493 25.8365 17.1458 25.8236 17.1387 25.8121C17.1316 25.8005 17.1191 25.7903 17.1013 25.7814L16.4752 25.4661L16.4152 25.4451L16.3827 25.4374L16.446 25.4194C16.466 25.4127 16.4849 25.4045 16.5027 25.3947L17.1013 25.0907C17.1191 25.0818 17.1316 25.0718 17.1387 25.0607C17.1458 25.0496 17.1493 25.0365 17.1493 25.0214V24.8521ZM17.664 25.3867L18.696 24.8521V25.0214C18.696 25.0365 18.6924 25.0496 18.6853 25.0607C18.6782 25.0718 18.6658 25.0818 18.648 25.0907L18.0493 25.3947C18.0316 25.4045 18.0127 25.4127 17.9927 25.4194L17.9293 25.4374L17.9618 25.4451L18.0218 25.4661L18.648 25.7814C18.6658 25.7903 18.6782 25.8005 18.6853 25.8121C18.6924 25.8236 18.696 25.8365 18.696 25.8507V26.0214L17.664 25.4854V25.3867ZM20.2427 24.8521L19.2107 25.3867V25.4854L20.2427 26.0214V25.8507C20.2427 25.8365 20.2391 25.8236 20.232 25.8121C20.2249 25.8005 20.2124 25.7903 20.1947 25.7814L19.5685 25.4661L19.5085 25.4451L19.476 25.4374L19.5393 25.4194C19.5593 25.4127 19.5782 25.4045 19.596 25.3947L20.1947 25.0907C20.2124 25.0818 20.2249 25.0718 20.232 25.0607C20.2391 25.0496 20.2427 25.0365 20.2427 25.0214V24.8521ZM20.7573 25.3867L21.7893 24.8521V25.0214C21.7893 25.0365 21.7858 25.0496 21.7787 25.0607C21.7716 25.0718 21.7591 25.0818 21.7413 25.0907L21.1427 25.3947C21.1249 25.4045 21.106 25.4127 21.086 25.4194L21.0227 25.4374L21.0552 25.4451L21.1152 25.4661L21.7413 25.7814C21.7591 25.7903 21.7716 25.8005 21.7787 25.8121C21.7858 25.8236 21.7893 25.8365 21.7893 25.8507V26.0214L20.7573 25.4854V25.3867ZM23.336 24.8521L22.304 25.3867V25.4854L23.336 26.0214V25.8507C23.336 25.8365 23.3324 25.8236 23.3253 25.8121C23.3182 25.8005 23.3058 25.7903 23.288 25.7814L22.6618 25.4661L22.6018 25.4451L22.5693 25.4374L22.6327 25.4194C22.6527 25.4127 22.6716 25.4045 22.6893 25.3947L23.288 25.0907C23.3058 25.0818 23.3182 25.0718 23.3253 25.0607C23.3324 25.0496 23.336 25.0365 23.336 25.0214V24.8521ZM23.8507 25.3867L24.8827 24.8521V25.0214C24.8827 25.0365 24.8791 25.0496 24.872 25.0607C24.8649 25.0718 24.8524 25.0818 24.8347 25.0907L24.236 25.3947C24.2182 25.4045 24.1993 25.4127 24.1793 25.4194L24.116 25.4374L24.1485 25.4451L24.2085 25.4661L24.8347 25.7814C24.8524 25.7903 24.8649 25.8005 24.872 25.8121C24.8791 25.8236 24.8827 25.8365 24.8827 25.8507V26.0214L23.8507 25.4854V25.3867ZM26.4293 24.8521L25.3973 25.3867V25.4854L26.4293 26.0214V25.8507C26.4293 25.8365 26.4258 25.8236 26.4187 25.8121C26.4116 25.8005 26.3991 25.7903 26.3813 25.7814L25.7552 25.4661L25.6952 25.4451L25.6627 25.4374L25.726 25.4194C25.746 25.4127 25.7649 25.4045 25.7827 25.3947L26.3813 25.0907C26.3991 25.0818 26.4116 25.0718 26.4187 25.0607C26.4258 25.0496 26.4293 25.0365 26.4293 25.0214V24.8521ZM26.944 25.3867L27.976 24.8521V25.0214C27.976 25.0365 27.9724 25.0496 27.9653 25.0607C27.9582 25.0718 27.9458 25.0818 27.928 25.0907L27.3293 25.3947C27.3116 25.4045 27.2927 25.4127 27.2727 25.4194L27.2093 25.4374L27.2418 25.4451L27.3018 25.4661L27.928 25.7814C27.9458 25.7903 27.9582 25.8005 27.9653 25.8121C27.9724 25.8236 27.976 25.8365 27.976 25.8507V26.0214L26.944 25.4854V25.3867ZM29.5227 24.8521L28.4907 25.3867V25.4854L29.5227 26.0214V25.8507C29.5227 25.8365 29.5191 25.8236 29.512 25.8121C29.5049 25.8005 29.4924 25.7903 29.4747 25.7814L28.8485 25.4661L28.7885 25.4451L28.756 25.4374L28.8193 25.4194C28.8393 25.4127 28.8582 25.4045 28.876 25.3947L29.4747 25.0907C29.4924 25.0818 29.5049 25.0718 29.512 25.0607C29.5191 25.0496 29.5227 25.0365 29.5227 25.0214V24.8521Z" fill="#32363F"/>
</g>
<rect x="2" y="10" width="14" height="14" fill="url(#paint2_linear)"/>
<path fill-rule="evenodd" clip-rule="evenodd" d="M9 18.75C7.34315 18.75 6 17.239 6 15.375C6 13.511 7.34315 12 9 12C10.6569 12 12 13.511 12 15.375C12 17.239 10.6569 18.75 9 18.75ZM3 22.5C3 21.75 4.5 19.5 6 19.5C7.5 19.5 6.75 20.25 9 20.25C11.25 20.25 10.5 19.5 12 19.5C13.5 19.5 15 21.75 15 22.5C15 23.25 15 24 14.25 24H3.75C3 24 3 23.25 3 22.5Z" fill="#32363F"/>
<path opacity="0.6" d="M16 10.5L21 10.5C22.933 10.5 24.5 12.067 24.5 14V14C24.5 15.933 22.933 17.5 21 17.5H18.5L25 24" stroke="white"/>
<path opacity="0.495675" fill-rule="evenodd" clip-rule="evenodd" d="M25 10H26H32V11H26V17H32V18H26V24H25V18V17V11V10Z" fill="white"/>
<defs>
<linearGradient id="paint0_linear" x1="14.3545" y1="21.9974" x2="14.3545" y2="24.4657" gradientUnits="userSpaceOnUse">
<stop stop-color="#ADE7F7"/>
<stop offset="1" stop-color="#D6D8DA"/>
</linearGradient>
<linearGradient id="paint1_linear" x1="16" y1="24" x2="16" y2="8" gradientUnits="userSpaceOnUse">
<stop stop-color="#ADE7F7"/>
<stop offset="1" stop-color="#C5EBDF"/>
</linearGradient>
<linearGradient id="paint2_linear" x1="2.00222" y1="10.0044" x2="2.00222" y2="24" gradientUnits="userSpaceOnUse">
<stop offset="0.000316723" stop-color="white" stop-opacity="0.49511"/>
<stop offset="1" stop-color="white"/>
</linearGradient>
</defs>
</svg>
