<svg width="16" height="16" viewBox="0 0 16 16" fill="none" xmlns="http://www.w3.org/2000/svg">
<g id="icons/16/icon-phone-upload">
<path id="Shape" fill-rule="evenodd" clip-rule="evenodd" d="M12.9975 0C13.5512 0 14 0.444631 14 1.00087V14.9991C14 15.5519 13.5442 16 12.9975 16H3.00247C2.44882 16 2 15.5554 2 14.9991V1.00087C2 0.448106 2.45576 0 3.00247 0H12.9975ZM12 2H4V13H12V2ZM7.29289 3.29289C7.65338 2.93241 8.22061 2.90468 8.6129 3.2097L8.70711 3.29289L10.7071 5.29289C11.0976 5.68342 11.0976 6.31658 10.7071 6.70711C10.3466 7.06759 9.77939 7.09532 9.3871 6.7903L9.29289 6.70711L9 6.41421V11C9 11.5523 8.55228 12 8 12C7.48716 12 7.06449 11.614 7.00673 11.1166L7 11V6.41421L6.70711 6.70711C6.31658 7.09763 5.68342 7.09763 5.29289 6.70711C4.93241 6.34662 4.90468 5.77939 5.2097 5.3871L5.29289 5.29289L7.29289 3.29289Z" fill="#1D212A" fill-opacity="0.72"/>
</g>
</svg>
