<svg width="260" height="127" viewBox="0 0 260 127" fill="none" xmlns="http://www.w3.org/2000/svg">
<g filter="url(#filter0_ddd_890:32879)">
<path d="M16 17C16 15.8954 16.8954 15 18 15H242C243.105 15 244 15.8954 244 17V109C244 110.105 243.105 111 242 111H18C16.8954 111 16 110.105 16 109V17Z" fill="white"/>
<path d="M48.5815 33H50.5804V29.6484H52.0392L53.8304 33H56.0371L54.0289 29.3253C55.1046 28.8636 55.7001 27.9265 55.7001 26.6339C55.7001 24.755 54.4583 23.5455 52.3116 23.5455H48.5815V33ZM50.5804 28.0419V25.1797H51.9284C53.0826 25.1797 53.6412 25.6921 53.6412 26.6339C53.6412 27.571 53.0826 28.0419 51.9377 28.0419H50.5804ZM60.1931 33.1385C61.9474 33.1385 63.1292 32.2844 63.4062 30.9688L61.5873 30.8487C61.3888 31.3888 60.8809 31.6705 60.2254 31.6705C59.2421 31.6705 58.6189 31.0195 58.6189 29.9624V29.9577H63.4477V29.4176C63.4477 27.0078 61.9889 25.8168 60.1146 25.8168C58.028 25.8168 56.6753 27.2987 56.6753 29.4869C56.6753 31.7351 58.0095 33.1385 60.1931 33.1385ZM58.6189 28.739C58.6604 27.9311 59.2744 27.2848 60.1469 27.2848C61.001 27.2848 61.5919 27.8942 61.5965 28.739H58.6189ZM66.6977 23.5455H64.7311V33H66.6977V23.5455ZM71.5046 33.1385C73.2589 33.1385 74.4407 32.2844 74.7177 30.9688L72.8988 30.8487C72.7003 31.3888 72.1925 31.6705 71.5369 31.6705C70.5536 31.6705 69.9304 31.0195 69.9304 29.9624V29.9577H74.7592V29.4176C74.7592 27.0078 73.3004 25.8168 71.4261 25.8168C69.3395 25.8168 67.9869 27.2987 67.9869 29.4869C67.9869 31.7351 69.321 33.1385 71.5046 33.1385ZM69.9304 28.739C69.9719 27.9311 70.5859 27.2848 71.4585 27.2848C72.3125 27.2848 72.9034 27.8942 72.908 28.739H69.9304ZM82.4503 25.9091H80.3683L78.9002 30.9826H78.8263L77.3537 25.9091H75.2763L77.7553 33H79.9712L82.4503 25.9091ZM86.447 33.1385C88.2013 33.1385 89.3831 32.2844 89.6601 30.9688L87.8412 30.8487C87.6427 31.3888 87.1349 31.6705 86.4793 31.6705C85.496 31.6705 84.8728 31.0195 84.8728 29.9624V29.9577H89.7016V29.4176C89.7016 27.0078 88.2428 25.8168 86.3685 25.8168C84.2819 25.8168 82.9292 27.2987 82.9292 29.4869C82.9292 31.7351 84.2634 33.1385 86.447 33.1385ZM84.8728 28.739C84.9143 27.9311 85.5283 27.2848 86.4008 27.2848C87.2549 27.2848 87.8458 27.8942 87.8504 28.739H84.8728ZM85.616 24.995H87.0056L88.4136 22.8945H86.5947L85.616 24.995ZM96.6067 33.1154C97.7516 33.1154 98.3471 32.4553 98.6195 31.8643H98.7026V33H100.642V23.5455H98.6795V27.1001H98.6195C98.3564 26.5231 97.7885 25.8168 96.6021 25.8168C95.0463 25.8168 93.7306 27.0263 93.7306 29.4638C93.7306 31.8366 94.9909 33.1154 96.6067 33.1154ZM97.2299 31.5504C96.2651 31.5504 95.7388 30.6918 95.7388 29.4545C95.7388 28.2266 96.2559 27.3817 97.2299 27.3817C98.1855 27.3817 98.7211 28.1896 98.7211 29.4545C98.7211 30.7195 98.1763 31.5504 97.2299 31.5504ZM103.907 23.5455H102.429V24.5518C102.429 25.332 102.152 25.8999 101.843 26.3892L102.711 26.9016C103.362 26.3569 103.907 25.3874 103.907 24.5426V23.5455ZM107.252 23.5455H105.253V33H107.252V23.5455ZM111.473 33.1154C112.618 33.1154 113.213 32.4553 113.486 31.8643H113.569V33H115.508V23.5455H113.546V27.1001H113.486C113.223 26.5231 112.655 25.8168 111.468 25.8168C109.913 25.8168 108.597 27.0263 108.597 29.4638C108.597 31.8366 109.857 33.1154 111.473 33.1154ZM112.096 31.5504C111.131 31.5504 110.605 30.6918 110.605 29.4545C110.605 28.2266 111.122 27.3817 112.096 27.3817C113.052 27.3817 113.587 28.1896 113.587 29.4545C113.587 30.7195 113.043 31.5504 112.096 31.5504ZM120.356 33.1385C122.11 33.1385 123.292 32.2844 123.569 30.9688L121.75 30.8487C121.552 31.3888 121.044 31.6705 120.388 31.6705C119.405 31.6705 118.782 31.0195 118.782 29.9624V29.9577H123.611V29.4176C123.611 27.0078 122.152 25.8168 120.278 25.8168C118.191 25.8168 116.838 27.2987 116.838 29.4869C116.838 31.7351 118.173 33.1385 120.356 33.1385ZM118.782 28.739C118.824 27.9311 119.438 27.2848 120.31 27.2848C121.164 27.2848 121.755 27.8942 121.76 28.739H118.782ZM126.861 28.9006C126.865 27.9865 127.41 27.451 128.204 27.451C128.994 27.451 129.469 27.968 129.464 28.8359V33H131.431V28.4851C131.431 26.8324 130.462 25.8168 128.984 25.8168C127.932 25.8168 127.17 26.3338 126.852 27.1602H126.768V25.9091H124.894V33H126.861V28.9006ZM136.753 25.9091H135.419V24.2102H133.452V25.9091H132.483V27.3864H133.452V31.0795C133.443 32.4691 134.389 33.157 135.816 33.0969C136.323 33.0785 136.684 32.9769 136.882 32.9123L136.573 31.4489C136.476 31.4673 136.268 31.5135 136.083 31.5135C135.691 31.5135 135.419 31.3658 135.419 30.821V27.3864H136.753V25.9091ZM138.034 33H140V25.9091H138.034V33ZM139.022 24.995C139.608 24.995 140.088 24.5472 140.088 23.9979C140.088 23.4531 139.608 23.0053 139.022 23.0053C138.44 23.0053 137.96 23.4531 137.96 23.9979C137.96 24.5472 138.44 24.995 139.022 24.995ZM145.347 25.9091H144.013V24.2102H142.047V25.9091H141.077V27.3864H142.047V31.0795C142.037 32.4691 142.984 33.157 144.41 33.0969C144.918 33.0785 145.278 32.9769 145.477 32.9123L145.167 31.4489C145.07 31.4673 144.863 31.5135 144.678 31.5135C144.286 31.5135 144.013 31.3658 144.013 30.821V27.3864H145.347V25.9091ZM149.784 33.1385C151.538 33.1385 152.72 32.2844 152.997 30.9688L151.178 30.8487C150.98 31.3888 150.472 31.6705 149.816 31.6705C148.833 31.6705 148.21 31.0195 148.21 29.9624V29.9577H153.039V29.4176C153.039 27.0078 151.58 25.8168 149.705 25.8168C147.619 25.8168 146.266 27.2987 146.266 29.4869C146.266 31.7351 147.6 33.1385 149.784 33.1385ZM148.21 28.739C148.251 27.9311 148.865 27.2848 149.738 27.2848C150.592 27.2848 151.183 27.8942 151.187 28.739H148.21ZM148.953 24.995H150.343L151.751 22.8945H149.932L148.953 24.995ZM157.368 33H161.407C163.531 33 164.662 31.892 164.662 30.3871C164.662 28.9883 163.66 28.1435 162.584 28.0927V28.0004C163.568 27.7788 164.292 27.0817 164.292 25.9691C164.292 24.5518 163.24 23.5455 161.153 23.5455H157.368V33ZM159.367 31.3658V28.8544H161.042C162.003 28.8544 162.598 29.4084 162.598 30.1886C162.598 30.8995 162.113 31.3658 160.996 31.3658H159.367ZM159.367 27.5018V25.1612H160.885C161.772 25.1612 162.275 25.6183 162.275 26.3015C162.275 27.0494 161.666 27.5018 160.848 27.5018H159.367ZM167.947 33.1339C168.995 33.1339 169.674 32.6768 170.02 32.0167H170.076V33H171.941V28.2173C171.941 26.5277 170.51 25.8168 168.931 25.8168C167.232 25.8168 166.115 26.6293 165.842 27.9219L167.661 28.0696C167.795 27.5987 168.215 27.2525 168.922 27.2525C169.591 27.2525 169.974 27.5895 169.974 28.1712V28.1989C169.974 28.6559 169.489 28.7159 168.257 28.8359C166.853 28.9652 165.593 29.4361 165.593 31.0195C165.593 32.4229 166.595 33.1339 167.947 33.1339ZM168.511 31.7766C167.906 31.7766 167.472 31.495 167.472 30.9549C167.472 30.4009 167.929 30.1286 168.621 30.0316C169.051 29.9716 169.752 29.87 169.988 29.7131V30.4656C169.988 31.2088 169.374 31.7766 168.511 31.7766ZM175.433 28.9006C175.438 27.9865 175.982 27.451 176.776 27.451C177.566 27.451 178.041 27.968 178.037 28.8359V33H180.003V28.4851C180.003 26.8324 179.034 25.8168 177.557 25.8168C176.504 25.8168 175.742 26.3338 175.424 27.1602H175.341V25.9091H173.466V33H175.433V28.9006ZM184.757 33.1385C186.645 33.1385 187.832 32.0305 187.924 30.4009H186.068C185.953 31.158 185.454 31.5827 184.78 31.5827C183.862 31.5827 183.266 30.8118 183.266 29.4545C183.266 28.1158 183.866 27.3494 184.78 27.3494C185.5 27.3494 185.962 27.8249 186.068 28.5312H187.924C187.841 26.8924 186.599 25.8168 184.748 25.8168C182.597 25.8168 181.267 27.3079 181.267 29.4822C181.267 31.6381 182.574 33.1385 184.757 33.1385ZM191.205 33.1339C192.253 33.1339 192.932 32.6768 193.278 32.0167H193.333V33H195.199V28.2173C195.199 26.5277 193.767 25.8168 192.189 25.8168C190.49 25.8168 189.373 26.6293 189.1 27.9219L190.919 28.0696C191.053 27.5987 191.473 27.2525 192.179 27.2525C192.849 27.2525 193.232 27.5895 193.232 28.1712V28.1989C193.232 28.6559 192.747 28.7159 191.515 28.8359C190.111 28.9652 188.851 29.4361 188.851 31.0195C188.851 32.4229 189.853 33.1339 191.205 33.1339ZM191.768 31.7766C191.164 31.7766 190.73 31.495 190.73 30.9549C190.73 30.4009 191.187 30.1286 191.879 30.0316C192.309 29.9716 193.01 29.87 193.246 29.7131V30.4656C193.246 31.2088 192.632 31.7766 191.768 31.7766ZM196.724 33H198.691V25.9091H196.724V33ZM197.712 24.995C198.298 24.995 198.779 24.5472 198.779 23.9979C198.779 23.4531 198.298 23.0053 197.712 23.0053C197.131 23.0053 196.65 23.4531 196.65 23.9979C196.65 24.5472 197.131 24.995 197.712 24.995ZM200.266 33H202.233V28.9883C202.233 28.1158 202.87 27.5156 203.738 27.5156C204.01 27.5156 204.384 27.5618 204.569 27.6218V25.8768C204.393 25.8352 204.149 25.8075 203.95 25.8075C203.156 25.8075 202.505 26.2692 202.247 27.1463H202.173V25.9091H200.266V33ZM208.487 33.1385C210.241 33.1385 211.423 32.2844 211.7 30.9688L209.881 30.8487C209.683 31.3888 209.175 31.6705 208.519 31.6705C207.536 31.6705 206.913 31.0195 206.913 29.9624V29.9577H211.742V29.4176C211.742 27.0078 210.283 25.8168 208.409 25.8168C206.322 25.8168 204.969 27.2987 204.969 29.4869C204.969 31.7351 206.303 33.1385 208.487 33.1385ZM206.913 28.739C206.954 27.9311 207.568 27.2848 208.441 27.2848C209.295 27.2848 209.886 27.8942 209.89 28.739H206.913Z" fill="#1D212A" fill-opacity="0.9"/>
<path d="M33.6295 68.4545H32.2456V75H33.6295V68.4545ZM34.7681 75H37.5646C39.0348 75 39.8178 74.233 39.8178 73.1911C39.8178 72.2227 39.1243 71.6378 38.3796 71.6026V71.5387C39.0604 71.3853 39.5621 70.9027 39.5621 70.1325C39.5621 69.1513 38.8335 68.4545 37.3888 68.4545H34.7681V75ZM36.152 73.8686V72.13H37.3121C37.9769 72.13 38.3892 72.5135 38.3892 73.0536C38.3892 73.5458 38.0536 73.8686 37.2802 73.8686H36.152ZM36.152 71.1935V69.5732H37.2035C37.8171 69.5732 38.1655 69.8896 38.1655 70.3626C38.1655 70.8803 37.7436 71.1935 37.1779 71.1935H36.152ZM41.8465 75L42.3323 73.5075H44.6942L45.18 75H46.6629L44.4065 68.4545H42.6231L40.3635 75H41.8465ZM42.6839 72.4272L43.4893 69.9503H43.5404L44.3458 72.4272H42.6839ZM52.9255 68.4545H51.548V72.571H51.4905L48.6652 68.4545H47.4507V75H48.8346V70.8803H48.8825L51.7302 75H52.9255V68.4545Z" fill="#1D212A" fill-opacity="0.9"/>
<path d="M37.3287 90H40.1252C41.5953 90 42.3784 89.233 42.3784 88.1911C42.3784 87.2227 41.6848 86.6378 40.9402 86.6026V86.5387C41.6209 86.3853 42.1227 85.9027 42.1227 85.1325C42.1227 84.1513 41.394 83.4545 39.9494 83.4545H37.3287V90ZM38.7125 88.8686V87.13H39.8727C40.5375 87.13 40.9498 87.5135 40.9498 88.0536C40.9498 88.5458 40.6142 88.8686 39.8407 88.8686H38.7125ZM38.7125 86.1935V84.5732H39.764C40.3777 84.5732 40.726 84.8896 40.726 85.3626C40.726 85.8803 40.3042 86.1935 39.7385 86.1935H38.7125ZM44.6627 83.4545H43.2789V90H44.6627V83.4545ZM51.5765 85.7461C51.3944 84.2344 50.2502 83.3651 48.7353 83.3651C47.0062 83.3651 45.6863 84.5859 45.6863 86.7273C45.6863 88.8622 46.9838 90.0895 48.7353 90.0895C50.4132 90.0895 51.4263 88.9741 51.5765 87.7692L50.1767 87.7628C50.0456 88.4627 49.4959 88.8654 48.7576 88.8654C47.7637 88.8654 47.0893 88.1271 47.0893 86.7273C47.0893 85.3658 47.7541 84.5891 48.7672 84.5891C49.5247 84.5891 50.0712 85.027 50.1767 85.7461H51.5765Z" fill="#1D212A" fill-opacity="0.9"/>
<path d="M27.8674 98.397H29.2033V102H30.1152V98.397H31.4512V97.6364H27.8674V98.397ZM32.0243 102H32.932V98.7273H32.0243V102ZM32.4803 98.3054C32.7509 98.3054 32.9725 98.0987 32.9725 97.8452C32.9725 97.5938 32.7509 97.3871 32.4803 97.3871C32.2118 97.3871 31.9902 97.5938 31.9902 97.8452C31.9902 98.0987 32.2118 98.3054 32.4803 98.3054ZM35.3999 98.7273H34.7841V97.9432H33.8764V98.7273H33.429V99.4091H33.8764V101.114C33.8722 101.755 34.3089 102.072 34.9673 102.045C35.2017 102.036 35.3679 101.989 35.4595 101.96L35.3168 101.284C35.272 101.293 35.1761 101.314 35.0909 101.314C34.9098 101.314 34.7841 101.246 34.7841 100.994V99.4091H35.3999V98.7273ZM38.0898 100.607C38.092 101.045 37.7915 101.276 37.4656 101.276C37.1225 101.276 36.9009 101.035 36.8988 100.649V98.7273H35.9911V100.811C35.9933 101.576 36.4407 102.043 37.0991 102.043C37.5913 102.043 37.945 101.789 38.092 101.406H38.1261V102H38.9975V98.7273H38.0898V100.607ZM40.6312 97.6364H39.7235V102H40.6312V97.6364ZM42.2915 102.062C42.7752 102.062 43.0884 101.851 43.2482 101.546H43.2738V102H44.1346V99.7926C44.1346 99.0128 43.4741 98.6847 42.7454 98.6847C41.9613 98.6847 41.4457 99.0597 41.32 99.6562L42.1594 99.7244C42.2212 99.5071 42.4151 99.3473 42.7411 99.3473C43.0501 99.3473 43.2269 99.5028 43.2269 99.7713V99.7841C43.2269 99.995 43.0032 100.023 42.4343 100.078C41.7866 100.138 41.2049 100.355 41.2049 101.086C41.2049 101.734 41.6673 102.062 42.2915 102.062ZM42.5515 101.435C42.2724 101.435 42.0721 101.305 42.0721 101.056C42.0721 100.8 42.283 100.675 42.6026 100.63C42.8008 100.602 43.1246 100.555 43.2333 100.483V100.83C43.2333 101.173 42.9499 101.435 42.5515 101.435ZM44.8388 102H45.7464V98.7273H44.8388V102ZM45.2947 98.3054C45.5653 98.3054 45.7869 98.0987 45.7869 97.8452C45.7869 97.5938 45.5653 97.3871 45.2947 97.3871C45.0263 97.3871 44.8047 97.5938 44.8047 97.8452C44.8047 98.0987 45.0263 98.3054 45.2947 98.3054ZM46.4735 102H47.3812V100.148C47.3812 99.7457 47.6752 99.4688 48.0758 99.4688C48.2015 99.4688 48.3741 99.4901 48.4593 99.5178V98.7124C48.3784 98.6932 48.2654 98.6804 48.1738 98.6804C47.8074 98.6804 47.5069 98.8935 47.3876 99.2983H47.3535V98.7273H46.4735V102ZM50.2678 102.064C51.0774 102.064 51.6229 101.67 51.7507 101.062L50.9112 101.007C50.8196 101.256 50.5852 101.386 50.2827 101.386C49.8288 101.386 49.5412 101.086 49.5412 100.598V100.596H51.7699V100.347C51.7699 99.2344 51.0966 98.6847 50.2315 98.6847C49.2685 98.6847 48.6442 99.3686 48.6442 100.379C48.6442 101.416 49.2599 102.064 50.2678 102.064ZM49.5412 100.033C49.5604 99.6605 49.8438 99.3622 50.2464 99.3622C50.6406 99.3622 50.9134 99.6435 50.9155 100.033H49.5412Z" fill="#1D212A" fill-opacity="0.9"/>
<path d="M60.0284 97.6364V102H60.5227V98.6847H60.5653L61.929 102H62.4062L63.7699 98.6847H63.8125V102H64.3068V97.6364H63.6761L62.1932 101.259H62.142L60.6591 97.6364H60.0284ZM66.2612 102.077C66.8322 102.077 67.1305 101.77 67.2328 101.557H67.2583V102H67.7612V99.8438C67.7612 98.804 66.9686 98.6847 66.551 98.6847C66.0566 98.6847 65.4941 98.8551 65.2385 99.4517L65.7157 99.6222C65.8265 99.3835 66.0886 99.1278 66.568 99.1278C67.0304 99.1278 67.2583 99.3729 67.2583 99.7926V99.8097C67.2583 100.053 67.0112 100.031 66.4146 100.108C65.8074 100.187 65.1447 100.321 65.1447 101.071C65.1447 101.71 65.639 102.077 66.2612 102.077ZM66.3379 101.625C65.9373 101.625 65.6475 101.446 65.6475 101.097C65.6475 100.713 65.997 100.594 66.389 100.543C66.6021 100.517 67.1731 100.457 67.2583 100.355V100.815C67.2583 101.224 66.9345 101.625 66.3379 101.625ZM69.9148 102.068C70.5455 102.068 70.7585 101.676 70.8693 101.497H70.929V102H71.4148V97.6364H70.9119V99.2472H70.8693C70.7585 99.0767 70.5625 98.6847 69.9233 98.6847C69.0966 98.6847 68.5256 99.3409 68.5256 100.372C68.5256 101.412 69.0966 102.068 69.9148 102.068ZM69.983 101.616C69.3523 101.616 69.0284 101.062 69.0284 100.364C69.0284 99.6733 69.3438 99.1364 69.983 99.1364C70.5966 99.1364 70.9205 99.6307 70.9205 100.364C70.9205 101.105 70.5881 101.616 69.983 101.616ZM73.3686 102.077C73.9396 102.077 74.2379 101.77 74.3402 101.557H74.3658V102H74.8686V99.8438C74.8686 98.804 74.076 98.6847 73.6584 98.6847C73.1641 98.6847 72.6016 98.8551 72.3459 99.4517L72.8232 99.6222C72.9339 99.3835 73.196 99.1278 73.6754 99.1278C74.1378 99.1278 74.3658 99.3729 74.3658 99.7926V99.8097C74.3658 100.053 74.1186 100.031 73.522 100.108C72.9148 100.187 72.2521 100.321 72.2521 101.071C72.2521 101.71 72.7464 102.077 73.3686 102.077ZM73.4453 101.625C73.0447 101.625 72.755 101.446 72.755 101.097C72.755 100.713 73.1044 100.594 73.4964 100.543C73.7095 100.517 74.2805 100.457 74.3658 100.355V100.815C74.3658 101.224 74.0419 101.625 73.4453 101.625ZM75.7864 102H76.2892V99.9545C76.2892 99.4751 76.6387 99.1364 77.0307 99.1364C77.4121 99.1364 77.6784 99.3857 77.6784 99.7585V102H78.1898V99.8693C78.1898 99.4474 78.454 99.1364 78.9142 99.1364C79.2722 99.1364 79.579 99.326 79.579 99.8097V102H80.0819V99.8097C80.0819 99.0405 79.6685 98.6847 79.0847 98.6847C78.6159 98.6847 78.2729 98.8999 78.1046 99.2386H78.0705C77.9086 98.8892 77.623 98.6847 77.1926 98.6847C76.7665 98.6847 76.4512 98.8892 76.3148 99.2386H76.2722V98.7273H75.7864V102ZM82.3734 102.068C83.0382 102.068 83.524 101.736 83.6774 101.241L83.1916 101.105C83.0637 101.446 82.7676 101.616 82.3734 101.616C81.7832 101.616 81.3762 101.235 81.3528 100.534H83.7285V100.321C83.7285 99.1023 83.0041 98.6847 82.3223 98.6847C81.4359 98.6847 80.8478 99.3835 80.8478 100.389C80.8478 101.395 81.4274 102.068 82.3734 102.068ZM81.3528 100.099C81.3869 99.5902 81.747 99.1364 82.3223 99.1364C82.8677 99.1364 83.2172 99.5455 83.2172 100.099H81.3528ZM86.7775 97.6364H86.2491V102H86.7775V97.6364ZM90.087 99.4602C89.9293 98.9957 89.5756 98.6847 88.9279 98.6847C88.2376 98.6847 87.7262 99.0767 87.7262 99.6307C87.7262 100.082 87.9947 100.385 88.5955 100.526L89.141 100.653C89.4712 100.73 89.6268 100.888 89.6268 101.114C89.6268 101.395 89.3285 101.625 88.8597 101.625C88.4485 101.625 88.1907 101.448 88.1012 101.097L87.6239 101.216C87.7411 101.772 88.1992 102.068 88.8683 102.068C89.6289 102.068 90.1467 101.653 90.1467 101.088C90.1467 100.632 89.8612 100.344 89.2773 100.202L88.7915 100.082C88.4038 99.9865 88.229 99.8565 88.229 99.6051C88.229 99.3239 88.5273 99.1193 88.9279 99.1193C89.3668 99.1193 89.5479 99.3622 89.6353 99.5881L90.087 99.4602ZM91.8667 102.077C92.4377 102.077 92.736 101.77 92.8382 101.557H92.8638V102H93.3667V99.8438C93.3667 98.804 92.574 98.6847 92.1564 98.6847C91.6621 98.6847 91.0996 98.8551 90.8439 99.4517L91.3212 99.6222C91.432 99.3835 91.6941 99.1278 92.1735 99.1278C92.6358 99.1278 92.8638 99.3729 92.8638 99.7926V99.8097C92.8638 100.053 92.6167 100.031 92.0201 100.108C91.4128 100.187 90.7502 100.321 90.7502 101.071C90.7502 101.71 91.2445 102.077 91.8667 102.077ZM91.9434 101.625C91.5428 101.625 91.253 101.446 91.253 101.097C91.253 100.713 91.6025 100.594 91.9945 100.543C92.2076 100.517 92.7786 100.457 92.8638 100.355V100.815C92.8638 101.224 92.54 101.625 91.9434 101.625ZM94.3526 102H94.8384V101.497H94.8981C95.0089 101.676 95.2219 102.068 95.8526 102.068C96.6708 102.068 97.2418 101.412 97.2418 100.372C97.2418 99.3409 96.6708 98.6847 95.8441 98.6847C95.2049 98.6847 95.0089 99.0767 94.8981 99.2472H94.8555V97.6364H94.3526V102ZM94.8469 100.364C94.8469 99.6307 95.1708 99.1364 95.7844 99.1364C96.4237 99.1364 96.739 99.6733 96.739 100.364C96.739 101.062 96.4151 101.616 95.7844 101.616C95.1793 101.616 94.8469 101.105 94.8469 100.364ZM99.3832 102.068C100.048 102.068 100.534 101.736 100.687 101.241L100.201 101.105C100.074 101.446 99.7773 101.616 99.3832 101.616C98.793 101.616 98.386 101.235 98.3626 100.534H100.738V100.321C100.738 99.1023 100.014 98.6847 99.332 98.6847C98.4457 98.6847 97.8576 99.3835 97.8576 100.389C97.8576 101.395 98.4371 102.068 99.3832 102.068ZM98.3626 100.099C98.3967 99.5902 98.7567 99.1364 99.332 99.1364C99.8775 99.1364 100.227 99.5455 100.227 100.099H98.3626ZM102.006 97.6364H101.503V102H102.006V97.6364ZM103.43 97.6364H102.927V102H103.43V97.6364ZM105.723 102.068C106.388 102.068 106.874 101.736 107.027 101.241L106.541 101.105C106.413 101.446 106.117 101.616 105.723 101.616C105.133 101.616 104.726 101.235 104.702 100.534H107.078V100.321C107.078 99.1023 106.354 98.6847 105.672 98.6847C104.786 98.6847 104.197 99.3835 104.197 100.389C104.197 101.395 104.777 102.068 105.723 102.068ZM104.702 100.099C104.737 99.5902 105.097 99.1364 105.672 99.1364C106.217 99.1364 106.567 99.5455 106.567 100.099H104.702ZM110.945 102C112.275 102 113.025 101.173 113.025 99.8097C113.025 98.4545 112.275 97.6364 111.005 97.6364H109.599V102H110.945ZM110.127 101.531V98.1051H110.971C111.994 98.1051 112.513 98.7528 112.513 99.8097C112.513 100.875 111.994 101.531 110.911 101.531H110.127ZM115.906 100.662C115.906 101.276 115.437 101.557 115.062 101.557C114.644 101.557 114.346 101.25 114.346 100.773V98.7273H113.843V100.807C113.843 101.642 114.286 102.043 114.9 102.043C115.394 102.043 115.718 101.778 115.871 101.446H115.906V102H116.408V98.7273H115.906V100.662ZM117.329 102H117.832V99.929C117.832 99.4858 118.182 99.1619 118.659 99.1619C118.793 99.1619 118.932 99.1875 118.966 99.196V98.6847C118.908 98.6804 118.776 98.6761 118.702 98.6761C118.309 98.6761 117.969 98.8977 117.849 99.2216H117.815V98.7273H117.329V102ZM120.525 102.077C121.096 102.077 121.394 101.77 121.496 101.557H121.522V102H122.025V99.8438C122.025 98.804 121.232 98.6847 120.815 98.6847C120.32 98.6847 119.758 98.8551 119.502 99.4517L119.979 99.6222C120.09 99.3835 120.352 99.1278 120.832 99.1278C121.294 99.1278 121.522 99.3729 121.522 99.7926V99.8097C121.522 100.053 121.275 100.031 120.678 100.108C120.071 100.187 119.408 100.321 119.408 101.071C119.408 101.71 119.903 102.077 120.525 102.077ZM120.602 101.625C120.201 101.625 119.911 101.446 119.911 101.097C119.911 100.713 120.261 100.594 120.653 100.543C120.866 100.517 121.437 100.457 121.522 100.355V100.815C121.522 101.224 121.198 101.625 120.602 101.625ZM123.445 100.031C123.445 99.4602 123.799 99.1364 124.281 99.1364C124.747 99.1364 125.031 99.4411 125.031 99.9545V102H125.534V99.9205C125.534 99.0852 125.088 98.6847 124.426 98.6847C123.931 98.6847 123.624 98.9062 123.471 99.2386H123.428V98.7273H122.943V102H123.445V100.031ZM127.688 102.068C128.319 102.068 128.532 101.676 128.643 101.497H128.702V102H129.188V97.6364H128.685V99.2472H128.643C128.532 99.0767 128.336 98.6847 127.697 98.6847C126.87 98.6847 126.299 99.3409 126.299 100.372C126.299 101.412 126.87 102.068 127.688 102.068ZM127.756 101.616C127.126 101.616 126.802 101.062 126.802 100.364C126.802 99.6733 127.117 99.1364 127.756 99.1364C128.37 99.1364 128.694 99.6307 128.694 100.364C128.694 101.105 128.362 101.616 127.756 101.616Z" fill="#1D212A" fill-opacity="0.9"/>
<path d="M72.3568 90L72.7957 88.7642H74.5599L74.9988 90H75.5528L73.9506 85.6364H73.4051L71.8028 90H72.3568ZM72.9619 88.2955L73.6608 86.3267H73.6949L74.3937 88.2955H72.9619ZM76.2325 90H77.8092C78.8405 90 79.2666 89.4972 79.2666 88.8409C79.2666 88.1506 78.7893 87.7756 78.3888 87.75V87.7074C78.7638 87.6051 79.0961 87.358 79.0961 86.7955C79.0961 86.1562 78.67 85.6364 77.7581 85.6364H76.2325V90ZM76.7609 89.5312V88.0142H77.8348C78.4058 88.0142 78.7638 88.3977 78.7638 88.8409C78.7638 89.2244 78.4996 89.5312 77.8092 89.5312H76.7609ZM76.7609 87.554V86.1051H77.7581C78.3376 86.1051 78.5933 86.4119 78.5933 86.7955C78.5933 87.2557 78.2183 87.554 77.741 87.554H76.7609ZM83.6462 87C83.4843 86.1051 82.7684 85.5767 81.8905 85.5767C80.7741 85.5767 79.9644 86.4375 79.9644 87.8182C79.9644 89.1989 80.7741 90.0597 81.8905 90.0597C82.7684 90.0597 83.4843 89.5312 83.6462 88.6364H83.1178C82.99 89.2415 82.4701 89.5653 81.8905 89.5653C81.0979 89.5653 80.4758 88.9517 80.4758 87.8182C80.4758 86.6847 81.0979 86.071 81.8905 86.071C82.4701 86.071 82.99 86.3949 83.1178 87H83.6462ZM85.8467 90C87.1762 90 87.9262 89.1733 87.9262 87.8097C87.9262 86.4545 87.1762 85.6364 85.9063 85.6364H84.5001V90H85.8467ZM85.0285 89.5312V86.1051H85.8722C86.895 86.1051 87.4149 86.7528 87.4149 87.8097C87.4149 88.875 86.895 89.5312 85.8126 89.5312H85.0285ZM88.8126 90H91.4802V89.5312H89.341V88.0483H91.3097V87.5795H89.341V86.1051H91.4461V85.6364H88.8126V90ZM92.3985 90H92.9269V88.0483H94.819V87.5795H92.9269V86.1051H95.015V85.6364H92.3985V90ZM98.903 87H99.4484C99.2865 86.1562 98.5791 85.5767 97.6586 85.5767C96.54 85.5767 95.7496 86.4375 95.7496 87.8182C95.7496 89.1989 96.5336 90.0597 97.6927 90.0597C98.7325 90.0597 99.474 89.3672 99.474 88.2869V87.8182H97.8121V88.2869H98.9626C98.9477 89.071 98.4321 89.5653 97.6927 89.5653C96.8831 89.5653 96.2609 88.9517 96.2609 87.8182C96.2609 86.6847 96.8831 86.071 97.6586 86.071C98.2893 86.071 98.7176 86.4268 98.903 87Z" fill="#1D212A" fill-opacity="0.9"/>
<path d="M64.5987 75H65.1271V73.0483H67.0192V72.5795H65.1271V71.1051H67.2152V70.6364H64.5987V75ZM68.1202 75H68.6486V73.2955H69.6032C69.6415 73.2955 69.6777 73.2955 69.714 73.2933L70.6344 75H71.248L70.2615 73.1974C70.8176 73.0078 71.0776 72.554 71.0776 71.9744C71.0776 71.2031 70.6174 70.6364 69.5946 70.6364H68.1202V75ZM68.6486 72.8182V71.1051H69.5776C70.285 71.1051 70.5577 71.4503 70.5577 71.9744C70.5577 72.4986 70.285 72.8182 69.5861 72.8182H68.6486ZM73.3047 75.0597C74.2678 75.0597 74.8217 74.2436 74.8217 72.8182C74.8217 71.4034 74.2592 70.5767 73.3047 70.5767C72.3501 70.5767 71.7876 71.4034 71.7876 72.8182C71.7876 74.2436 72.3416 75.0597 73.3047 75.0597ZM73.3047 74.5909C72.6697 74.5909 72.299 73.9538 72.299 72.8182C72.299 71.6847 72.674 71.0369 73.3047 71.0369C73.9354 71.0369 74.3104 71.6847 74.3104 72.8182C74.3104 73.9538 73.9396 74.5909 73.3047 74.5909ZM77.0547 75.0597C78.0178 75.0597 78.5717 74.2436 78.5717 72.8182C78.5717 71.4034 78.0092 70.5767 77.0547 70.5767C76.1001 70.5767 75.5376 71.4034 75.5376 72.8182C75.5376 74.2436 76.0916 75.0597 77.0547 75.0597ZM77.0547 74.5909C76.4197 74.5909 76.049 73.9538 76.049 72.8182C76.049 71.6847 76.424 71.0369 77.0547 71.0369C77.6854 71.0369 78.0604 71.6847 78.0604 72.8182C78.0604 73.9538 77.6896 74.5909 77.0547 74.5909Z" fill="#1D212A" fill-opacity="0.9"/>
<path d="M31.6147 55.6364H31.0863L29.9954 56.3608V56.8977L31.0607 56.1903H31.0863V60H31.6147V55.6364ZM32.8697 60H35.6225V59.5312H33.5941V59.4972L34.5742 58.4489C35.3242 57.6456 35.5458 57.2706 35.5458 56.7869C35.5458 56.1136 35.0004 55.5767 34.2333 55.5767C33.4684 55.5767 32.8867 56.0966 32.8867 56.8636H33.3896C33.3896 56.3672 33.7113 56.0369 34.2163 56.0369C34.6893 56.0369 35.0515 56.3267 35.0515 56.7869C35.0515 57.1896 34.815 57.4879 34.31 58.0398L32.8697 59.6165V60ZM37.9769 60.0597C38.8228 60.0597 39.4513 59.5291 39.4513 58.8153C39.4513 58.2614 39.1232 57.8587 38.5735 57.767V57.733C39.0146 57.5987 39.2894 57.2365 39.2894 56.7443C39.2894 56.1264 38.8015 55.5767 37.994 55.5767C37.2397 55.5767 36.6133 56.0412 36.5877 56.7273H37.0991C37.1183 56.2926 37.5316 56.0369 37.9854 56.0369C38.467 56.0369 38.7781 56.3288 38.7781 56.7699C38.7781 57.2301 38.418 57.5284 37.9002 57.5284H37.5508V57.9972H37.9002C38.5629 57.9972 38.9315 58.3338 38.9315 58.8153C38.9315 59.2777 38.5288 59.5909 37.9684 59.5909C37.4634 59.5909 37.0629 59.331 37.0309 58.9091H36.494C36.5259 59.5952 37.131 60.0597 37.9769 60.0597ZM40.2205 59.1051H42.2745V60H42.7773V59.1051H43.3739V58.6364H42.7773V55.6364H42.1381L40.2205 58.6705V59.1051ZM42.2745 58.6364H40.7915V58.6023L42.2404 56.3097H42.2745V58.6364ZM45.536 60.0597C46.367 60.0597 46.9764 59.446 46.9764 58.6108C46.9764 57.7649 46.3883 57.1449 45.5872 57.1449C45.2931 57.1449 45.0076 57.2493 44.8287 57.392H44.8031L44.9565 56.1051H46.7804V55.6364H44.5133L44.2491 57.7841L44.7434 57.8438C44.9245 57.7138 45.2335 57.62 45.502 57.6222C46.0581 57.6264 46.465 58.0483 46.465 58.6193C46.465 59.1797 46.073 59.5909 45.536 59.5909C45.0886 59.5909 44.7328 59.3033 44.6923 58.9091H44.1809C44.2129 59.5739 44.786 60.0597 45.536 60.0597Z" fill="#1D212A" fill-opacity="0.9"/>
<path d="M27.1751 47.25C27.0536 46.5788 26.5167 46.1825 25.8583 46.1825C25.021 46.1825 24.4137 46.8281 24.4137 47.8636C24.4137 48.8991 25.021 49.5447 25.8583 49.5447C26.5167 49.5447 27.0536 49.1484 27.1751 48.4773H26.7788C26.6829 48.9311 26.293 49.174 25.8583 49.174C25.2639 49.174 24.7973 48.7138 24.7973 47.8636C24.7973 47.0135 25.2639 46.5533 25.8583 46.5533C26.293 46.5533 26.6829 46.7962 26.7788 47.25H27.1751ZM28.7615 49.5511C29.4263 49.5511 29.8737 49.0462 29.8737 48.2855C29.8737 47.5185 29.4263 47.0135 28.7615 47.0135C28.0967 47.0135 27.6493 47.5185 27.6493 48.2855C27.6493 49.0462 28.0967 49.5511 28.7615 49.5511ZM28.7615 49.2124C28.2565 49.2124 28.0264 48.7777 28.0264 48.2855C28.0264 47.7933 28.2565 47.3523 28.7615 47.3523C29.2665 47.3523 29.4966 47.7933 29.4966 48.2855C29.4966 48.7777 29.2665 49.2124 28.7615 49.2124ZM31.3763 49.5511C31.8493 49.5511 32.0091 49.2571 32.0922 49.1229H32.1369V49.5H32.5013V46.2273H32.1241V47.4354H32.0922C32.0091 47.3075 31.8621 47.0135 31.3827 47.0135C30.7626 47.0135 30.3344 47.5057 30.3344 48.2791C30.3344 49.0589 30.7626 49.5511 31.3763 49.5511ZM31.4274 49.2124C30.9544 49.2124 30.7115 48.7969 30.7115 48.2727C30.7115 47.755 30.948 47.3523 31.4274 47.3523C31.8876 47.3523 32.1305 47.723 32.1305 48.2727C32.1305 48.8288 31.8812 49.2124 31.4274 49.2124ZM34.2735 49.5511C34.772 49.5511 35.1364 49.3018 35.2514 48.9311L34.8871 48.8288C34.7912 49.0845 34.5691 49.2124 34.2735 49.2124C33.8308 49.2124 33.5256 48.9263 33.508 48.4006H35.2898V48.2408C35.2898 47.3267 34.7465 47.0135 34.2351 47.0135C33.5703 47.0135 33.1293 47.5376 33.1293 48.2919C33.1293 49.0462 33.5639 49.5511 34.2735 49.5511ZM33.508 48.0746C33.5336 47.6926 33.8036 47.3523 34.2351 47.3523C34.6442 47.3523 34.9063 47.6591 34.9063 48.0746H33.508ZM37.1802 49.5H38.3628C39.1362 49.5 39.4558 49.1229 39.4558 48.6307C39.4558 48.1129 39.0979 47.8317 38.7974 47.8125V47.7805C39.0787 47.7038 39.328 47.5185 39.328 47.0966C39.328 46.6172 39.0084 46.2273 38.3244 46.2273H37.1802V49.5ZM37.5765 49.1484V48.0107H38.3819C38.8102 48.0107 39.0787 48.2983 39.0787 48.6307C39.0787 48.9183 38.8805 49.1484 38.3628 49.1484H37.5765ZM37.5765 47.6655V46.5788H38.3244C38.7591 46.5788 38.9508 46.8089 38.9508 47.0966C38.9508 47.4418 38.6696 47.6655 38.3116 47.6655H37.5765ZM40.7782 49.5575C41.2064 49.5575 41.4302 49.3274 41.5069 49.1676H41.526V49.5H41.9032V47.8828C41.9032 47.103 41.3087 47.0135 40.9955 47.0135C40.6248 47.0135 40.2029 47.1413 40.0111 47.5888L40.3691 47.7166C40.4522 47.5376 40.6487 47.3459 41.0083 47.3459C41.355 47.3459 41.526 47.5297 41.526 47.8445V47.8572C41.526 48.0394 41.3407 48.0234 40.8932 48.081C40.4378 48.1401 39.9408 48.2408 39.9408 48.8033C39.9408 49.2827 40.3115 49.5575 40.7782 49.5575ZM40.8357 49.2188C40.5353 49.2188 40.3179 49.0845 40.3179 48.8224C40.3179 48.5348 40.58 48.4453 40.874 48.407C41.0338 48.3878 41.4621 48.343 41.526 48.2663V48.6115C41.526 48.9183 41.2831 49.2188 40.8357 49.2188ZM42.9686 48.0234C42.9686 47.5952 43.2339 47.3523 43.5951 47.3523C43.945 47.3523 44.1576 47.5808 44.1576 47.9659V49.5H44.5347V47.9403C44.5347 47.3139 44.2007 47.0135 43.7037 47.0135C43.333 47.0135 43.1029 47.1797 42.9878 47.429H42.9559V47.0455H42.5915V49.5H42.9686V48.0234ZM47.2757 50.4205V47.0455H46.9113V47.4354H46.8666C46.7835 47.3075 46.6365 47.0135 46.1571 47.0135C45.537 47.0135 45.1088 47.5057 45.1088 48.2791C45.1088 49.0589 45.537 49.5511 46.1507 49.5511C46.6237 49.5511 46.7835 49.2571 46.8666 49.1229H46.8985V50.4205H47.2757ZM46.9049 48.2727C46.9049 48.8288 46.6557 49.2124 46.2018 49.2124C45.7288 49.2124 45.4859 48.7969 45.4859 48.2727C45.4859 47.755 45.7224 47.3523 46.2018 47.3523C46.662 47.3523 46.9049 47.723 46.9049 48.2727ZM49.5129 48.4964C49.5129 48.9567 49.1613 49.1676 48.8801 49.1676C48.5669 49.1676 48.3432 48.9375 48.3432 48.5795V47.0455H47.966V48.6051C47.966 49.2315 48.2984 49.532 48.7586 49.532C49.1294 49.532 49.3723 49.3338 49.4873 49.0845H49.5129V49.5H49.89V47.0455H49.5129V48.4964ZM51.6099 49.5511C52.1085 49.5511 52.4728 49.3018 52.5879 48.9311L52.2235 48.8288C52.1276 49.0845 51.9055 49.2124 51.6099 49.2124C51.1672 49.2124 50.862 48.9263 50.8444 48.4006H52.6262V48.2408C52.6262 47.3267 52.0829 47.0135 51.5715 47.0135C50.9068 47.0135 50.4657 47.5376 50.4657 48.2919C50.4657 49.0462 50.9004 49.5511 51.6099 49.5511ZM50.8444 48.0746C50.87 47.6926 51.1401 47.3523 51.5715 47.3523C51.9806 47.3523 52.2427 47.6591 52.2427 48.0746H50.8444Z" fill="#1D212A" fill-opacity="0.9"/>
<path d="M59.9839 47.25C59.8625 46.5788 59.3256 46.1825 58.6672 46.1825C57.8298 46.1825 57.2226 46.8281 57.2226 47.8636C57.2226 48.8991 57.8298 49.5447 58.6672 49.5447C59.3256 49.5447 59.8625 49.1484 59.9839 48.4773H59.5876C59.4917 48.9311 59.1018 49.174 58.6672 49.174C58.0727 49.174 57.6061 48.7138 57.6061 47.8636C57.6061 47.0135 58.0727 46.5533 58.6672 46.5533C59.1018 46.5533 59.4917 46.7962 59.5876 47.25H59.9839ZM61.5704 49.5511C62.2351 49.5511 62.6826 49.0462 62.6826 48.2855C62.6826 47.5185 62.2351 47.0135 61.5704 47.0135C60.9056 47.0135 60.4581 47.5185 60.4581 48.2855C60.4581 49.0462 60.9056 49.5511 61.5704 49.5511ZM61.5704 49.2124C61.0654 49.2124 60.8353 48.7777 60.8353 48.2855C60.8353 47.7933 61.0654 47.3523 61.5704 47.3523C62.0753 47.3523 62.3054 47.7933 62.3054 48.2855C62.3054 48.7777 62.0753 49.2124 61.5704 49.2124ZM64.1851 49.5511C64.6581 49.5511 64.8179 49.2571 64.901 49.1229H64.9458V49.5H65.3101V46.2273H64.933V47.4354H64.901C64.8179 47.3075 64.6709 47.0135 64.1915 47.0135C63.5715 47.0135 63.1432 47.5057 63.1432 48.2791C63.1432 49.0589 63.5715 49.5511 64.1851 49.5511ZM64.2362 49.2124C63.7632 49.2124 63.5203 48.7969 63.5203 48.2727C63.5203 47.755 63.7568 47.3523 64.2362 47.3523C64.6965 47.3523 64.9394 47.723 64.9394 48.2727C64.9394 48.8288 64.6901 49.2124 64.2362 49.2124ZM67.0823 49.5511C67.5809 49.5511 67.9452 49.3018 68.0603 48.9311L67.6959 48.8288C67.6001 49.0845 67.3779 49.2124 67.0823 49.2124C66.6396 49.2124 66.3344 48.9263 66.3169 48.4006H68.0986V48.2408C68.0986 47.3267 67.5553 47.0135 67.0439 47.0135C66.3792 47.0135 65.9381 47.5376 65.9381 48.2919C65.9381 49.0462 66.3728 49.5511 67.0823 49.5511ZM66.3169 48.0746C66.3424 47.6926 66.6125 47.3523 67.0439 47.3523C67.453 47.3523 67.7151 47.6591 67.7151 48.0746H66.3169ZM72.2263 47.25H72.6354C72.5139 46.6172 71.9834 46.1825 71.2931 46.1825C70.4541 46.1825 69.8612 46.8281 69.8612 47.8636C69.8612 48.8991 70.4493 49.5447 71.3186 49.5447C72.0985 49.5447 72.6546 49.0254 72.6546 48.2152V47.8636H71.4081V48.2152H72.271C72.2599 48.8033 71.8731 49.174 71.3186 49.174C70.7114 49.174 70.2448 48.7138 70.2448 47.8636C70.2448 47.0135 70.7114 46.5533 71.2931 46.5533C71.7661 46.5533 72.0873 46.8201 72.2263 47.25ZM74.8291 48.4964C74.8291 48.9567 74.4775 49.1676 74.1962 49.1676C73.883 49.1676 73.6593 48.9375 73.6593 48.5795V47.0455H73.2822V48.6051C73.2822 49.2315 73.6146 49.532 74.0748 49.532C74.4455 49.532 74.6884 49.3338 74.8035 49.0845H74.8291V49.5H75.2062V47.0455H74.8291V48.4964ZM75.8969 49.5H76.2741V47.0455H75.8969V49.5ZM76.0887 46.6364C76.2357 46.6364 76.3572 46.5213 76.3572 46.3807C76.3572 46.2401 76.2357 46.125 76.0887 46.125C75.9417 46.125 75.8202 46.2401 75.8202 46.3807C75.8202 46.5213 75.9417 46.6364 76.0887 46.6364ZM77.962 49.5511C78.5053 49.5511 78.8632 49.2188 78.9272 48.7841H78.55C78.4797 49.0526 78.256 49.2124 77.962 49.2124C77.5145 49.2124 77.2269 48.8416 77.2269 48.2727C77.2269 47.7166 77.5209 47.3523 77.962 47.3523C78.2943 47.3523 78.4925 47.5568 78.55 47.7805H78.9272C78.8632 47.3203 78.4733 47.0135 77.9556 47.0135C77.2908 47.0135 76.8497 47.5376 76.8497 48.2855C76.8497 49.0206 77.2716 49.5511 77.962 49.5511ZM79.8556 48.0234C79.8556 47.5952 80.1289 47.3523 80.5012 47.3523C80.856 47.3523 81.0701 47.576 81.0701 47.9659V49.5H81.4472V47.9403C81.4472 47.3091 81.1116 47.0135 80.6099 47.0135C80.2231 47.0135 80.0026 47.1749 79.8876 47.429H79.8556V46.2273H79.4785V49.5H79.8556V48.0234ZM83.1663 49.5511C83.6649 49.5511 84.0292 49.3018 84.1443 48.9311L83.7799 48.8288C83.684 49.0845 83.4619 49.2124 83.1663 49.2124C82.7236 49.2124 82.4184 48.9263 82.4008 48.4006H84.1826V48.2408C84.1826 47.3267 83.6393 47.0135 83.1279 47.0135C82.4632 47.0135 82.0221 47.5376 82.0221 48.2919C82.0221 49.0462 82.4568 49.5511 83.1663 49.5511ZM82.4008 48.0746C82.4264 47.6926 82.6965 47.3523 83.1279 47.3523C83.537 47.3523 83.7991 47.6591 83.7991 48.0746H82.4008ZM85.8238 47.0455H85.2996V46.4574H84.9225V47.0455H84.5518V47.3651H84.9225V48.8991C84.9225 49.3274 85.2677 49.532 85.5873 49.532C85.7279 49.532 85.8174 49.5064 85.8685 49.4872L85.7918 49.1484C85.7599 49.1548 85.7087 49.1676 85.6256 49.1676C85.4594 49.1676 85.2996 49.1165 85.2996 48.7969V47.3651H85.8238V47.0455Z" fill="#1D212A" fill-opacity="0.9"/>
<path d="M98.3201 46.2273H97.9302V48.8033H97.8982L96.1084 46.2273H95.7249V49.5H96.1212V46.9304H96.1532L97.9366 49.5H98.3201V46.2273ZM100.609 48.4964C100.609 48.9567 100.257 49.1676 99.976 49.1676C99.6628 49.1676 99.4391 48.9375 99.4391 48.5795V47.0455H99.062V48.6051C99.062 49.2315 99.3944 49.532 99.8546 49.532C100.225 49.532 100.468 49.3338 100.583 49.0845H100.609V49.5H100.986V47.0455H100.609V48.4964ZM101.677 49.5H102.054V47.9659C102.054 47.6064 102.316 47.3523 102.61 47.3523C102.896 47.3523 103.096 47.5392 103.096 47.8189V49.5H103.479V47.902C103.479 47.5856 103.677 47.3523 104.023 47.3523C104.291 47.3523 104.521 47.4945 104.521 47.8572V49.5H104.898V47.8572C104.898 47.2804 104.588 47.0135 104.15 47.0135C103.799 47.0135 103.542 47.1749 103.415 47.429H103.39C103.268 47.1669 103.054 47.0135 102.731 47.0135C102.412 47.0135 102.175 47.1669 102.073 47.429H102.041V47.0455H101.677V49.5ZM106.617 49.5511C107.116 49.5511 107.48 49.3018 107.595 48.9311L107.231 48.8288C107.135 49.0845 106.913 49.2124 106.617 49.2124C106.174 49.2124 105.869 48.9263 105.852 48.4006H107.633V48.2408C107.633 47.3267 107.09 47.0135 106.579 47.0135C105.914 47.0135 105.473 47.5376 105.473 48.2919C105.473 49.0462 105.907 49.5511 106.617 49.5511ZM105.852 48.0746C105.877 47.6926 106.147 47.3523 106.579 47.3523C106.988 47.3523 107.25 47.6591 107.25 48.0746H105.852ZM106.387 46.7131H106.719L107.218 45.9716H106.777L106.387 46.7131ZM108.207 49.5H108.584V47.9467C108.584 47.6143 108.846 47.3714 109.204 47.3714C109.305 47.3714 109.409 47.3906 109.434 47.397V47.0135C109.391 47.0103 109.292 47.0071 109.236 47.0071C108.942 47.0071 108.686 47.1733 108.597 47.4162H108.571V47.0455H108.207V49.5ZM110.804 49.5511C111.469 49.5511 111.916 49.0462 111.916 48.2855C111.916 47.5185 111.469 47.0135 110.804 47.0135C110.139 47.0135 109.692 47.5185 109.692 48.2855C109.692 49.0462 110.139 49.5511 110.804 49.5511ZM110.804 49.2124C110.299 49.2124 110.069 48.7777 110.069 48.2855C110.069 47.7933 110.299 47.3523 110.804 47.3523C111.309 47.3523 111.539 47.7933 111.539 48.2855C111.539 48.7777 111.309 49.2124 110.804 49.2124ZM114.684 49.5511C115.157 49.5511 115.317 49.2571 115.4 49.1229H115.445V49.5H115.809V46.2273H115.432V47.4354H115.4C115.317 47.3075 115.17 47.0135 114.691 47.0135C114.07 47.0135 113.642 47.5057 113.642 48.2791C113.642 49.0589 114.07 49.5511 114.684 49.5511ZM114.735 49.2124C114.262 49.2124 114.019 48.7969 114.019 48.2727C114.019 47.755 114.256 47.3523 114.735 47.3523C115.195 47.3523 115.438 47.723 115.438 48.2727C115.438 48.8288 115.189 49.2124 114.735 49.2124ZM117.581 49.5511C118.08 49.5511 118.444 49.3018 118.559 48.9311L118.195 48.8288C118.099 49.0845 117.877 49.2124 117.581 49.2124C117.139 49.2124 116.833 48.9263 116.816 48.4006H118.598V48.2408C118.598 47.3267 118.054 47.0135 117.543 47.0135C116.878 47.0135 116.437 47.5376 116.437 48.2919C116.437 49.0462 116.872 49.5511 117.581 49.5511ZM116.816 48.0746C116.841 47.6926 117.112 47.3523 117.543 47.3523C117.952 47.3523 118.214 47.6591 118.214 48.0746H116.816ZM121.434 49.5511C121.977 49.5511 122.335 49.2188 122.399 48.7841H122.022C121.952 49.0526 121.728 49.2124 121.434 49.2124C120.987 49.2124 120.699 48.8416 120.699 48.2727C120.699 47.7166 120.993 47.3523 121.434 47.3523C121.767 47.3523 121.965 47.5568 122.022 47.7805H122.399C122.335 47.3203 121.945 47.0135 121.428 47.0135C120.763 47.0135 120.322 47.5376 120.322 48.2855C120.322 49.0206 120.744 49.5511 121.434 49.5511ZM123.948 49.5511C124.613 49.5511 125.06 49.0462 125.06 48.2855C125.06 47.5185 124.613 47.0135 123.948 47.0135C123.283 47.0135 122.836 47.5185 122.836 48.2855C122.836 49.0462 123.283 49.5511 123.948 49.5511ZM123.948 49.2124C123.443 49.2124 123.213 48.7777 123.213 48.2855C123.213 47.7933 123.443 47.3523 123.948 47.3523C124.453 47.3523 124.683 47.7933 124.683 48.2855C124.683 48.7777 124.453 49.2124 123.948 49.2124ZM125.636 49.5H126.013V47.9659C126.013 47.6064 126.275 47.3523 126.569 47.3523C126.855 47.3523 127.055 47.5392 127.055 47.8189V49.5H127.438V47.902C127.438 47.5856 127.636 47.3523 127.982 47.3523C128.25 47.3523 128.48 47.4945 128.48 47.8572V49.5H128.857V47.8572C128.857 47.2804 128.547 47.0135 128.109 47.0135C127.758 47.0135 127.501 47.1749 127.374 47.429H127.349C127.227 47.1669 127.013 47.0135 126.69 47.0135C126.371 47.0135 126.134 47.1669 126.032 47.429H126V47.0455H125.636V49.5ZM129.547 50.4205H129.924V49.1229H129.956C130.039 49.2571 130.199 49.5511 130.672 49.5511C131.285 49.5511 131.714 49.0589 131.714 48.2791C131.714 47.5057 131.285 47.0135 130.665 47.0135C130.186 47.0135 130.039 47.3075 129.956 47.4354H129.911V47.0455H129.547V50.4205ZM129.918 48.2727C129.918 47.723 130.16 47.3523 130.621 47.3523C131.1 47.3523 131.337 47.755 131.337 48.2727C131.337 48.7969 131.094 49.2124 130.621 49.2124C130.167 49.2124 129.918 48.8288 129.918 48.2727ZM133.356 47.0455H132.832V46.4574H132.455V47.0455H132.084V47.3651H132.455V48.8991C132.455 49.3274 132.8 49.532 133.12 49.532C133.261 49.532 133.35 49.5064 133.401 49.4872L133.325 49.1484C133.293 49.1548 133.241 49.1676 133.158 49.1676C132.992 49.1676 132.832 49.1165 132.832 48.7969V47.3651H133.356V47.0455ZM134.927 49.5511C135.425 49.5511 135.789 49.3018 135.905 48.9311L135.54 48.8288C135.444 49.0845 135.222 49.2124 134.927 49.2124C134.484 49.2124 134.179 48.9263 134.161 48.4006H135.943V48.2408C135.943 47.3267 135.4 47.0135 134.888 47.0135C134.223 47.0135 133.782 47.5376 133.782 48.2919C133.782 49.0462 134.217 49.5511 134.927 49.5511ZM134.161 48.0746C134.187 47.6926 134.457 47.3523 134.888 47.3523C135.297 47.3523 135.559 47.6591 135.559 48.0746H134.161Z" fill="#1D212A" fill-opacity="0.9"/>
<path d="M150.169 47.25C150.047 46.5788 149.51 46.1825 148.852 46.1825C148.014 46.1825 147.407 46.8281 147.407 47.8636C147.407 48.8991 148.014 49.5447 148.852 49.5447C149.51 49.5447 150.047 49.1484 150.169 48.4773H149.772C149.676 48.9311 149.286 49.174 148.852 49.174C148.257 49.174 147.791 48.7138 147.791 47.8636C147.791 47.0135 148.257 46.5533 148.852 46.5533C149.286 46.5533 149.676 46.7962 149.772 47.25H150.169ZM151.135 46.2273H150.758V49.5H151.135V46.2273ZM152.855 49.5511C153.353 49.5511 153.718 49.3018 153.833 48.9311L153.468 48.8288C153.373 49.0845 153.15 49.2124 152.855 49.2124C152.412 49.2124 152.107 48.9263 152.089 48.4006H153.871V48.2408C153.871 47.3267 153.328 47.0135 152.816 47.0135C152.152 47.0135 151.711 47.5376 151.711 48.2919C151.711 49.0462 152.145 49.5511 152.855 49.5511ZM152.089 48.0746C152.115 47.6926 152.385 47.3523 152.816 47.3523C153.225 47.3523 153.488 47.6591 153.488 48.0746H152.089ZM152.625 46.7131H152.957L153.456 45.9716H153.015L152.625 46.7131ZM155.762 49.5H156.158V48.2216H156.874C156.903 48.2216 156.93 48.2216 156.957 48.22L157.647 49.5H158.107L157.368 48.1481C157.785 48.0059 157.98 47.6655 157.98 47.2308C157.98 46.6523 157.634 46.2273 156.867 46.2273H155.762V49.5ZM156.158 47.8636V46.5788H156.855C157.385 46.5788 157.59 46.8377 157.59 47.2308C157.59 47.6239 157.385 47.8636 156.861 47.8636H156.158ZM159.036 46.2273H158.64V49.5H159.036V46.2273ZM159.831 49.5H161.013C161.787 49.5 162.106 49.1229 162.106 48.6307C162.106 48.1129 161.748 47.8317 161.448 47.8125V47.7805C161.729 47.7038 161.979 47.5185 161.979 47.0966C161.979 46.6172 161.659 46.2273 160.975 46.2273H159.831V49.5ZM160.227 49.1484V48.0107H161.033C161.461 48.0107 161.729 48.2983 161.729 48.6307C161.729 48.9183 161.531 49.1484 161.013 49.1484H160.227ZM160.227 47.6655V46.5788H160.975C161.41 46.5788 161.601 46.8089 161.601 47.0966C161.601 47.4418 161.32 47.6655 160.962 47.6655H160.227Z" fill="#1D212A" fill-opacity="0.9"/>
<path d="M189.821 49.5C190.818 49.5 191.38 48.88 191.38 47.8572C191.38 46.8409 190.818 46.2273 189.865 46.2273H188.811V49.5H189.821ZM189.207 49.1484V46.5788H189.84C190.607 46.5788 190.997 47.0646 190.997 47.8572C190.997 48.6562 190.607 49.1484 189.795 49.1484H189.207ZM192.991 49.5511C193.656 49.5511 194.103 49.0462 194.103 48.2855C194.103 47.5185 193.656 47.0135 192.991 47.0135C192.326 47.0135 191.879 47.5185 191.879 48.2855C191.879 49.0462 192.326 49.5511 192.991 49.5511ZM192.991 49.2124C192.486 49.2124 192.256 48.7777 192.256 48.2855C192.256 47.7933 192.486 47.3523 192.991 47.3523C193.496 47.3523 193.726 47.7933 193.726 48.2855C193.726 48.7777 193.496 49.2124 192.991 49.2124ZM194.679 49.5H195.056V47.9659C195.056 47.6064 195.318 47.3523 195.612 47.3523C195.898 47.3523 196.098 47.5392 196.098 47.8189V49.5H196.481V47.902C196.481 47.5856 196.68 47.3523 197.025 47.3523C197.293 47.3523 197.523 47.4945 197.523 47.8572V49.5H197.901V47.8572C197.901 47.2804 197.59 47.0135 197.153 47.0135C196.801 47.0135 196.544 47.1749 196.418 47.429H196.392C196.271 47.1669 196.056 47.0135 195.734 47.0135C195.414 47.0135 195.177 47.1669 195.075 47.429H195.043V47.0455H194.679V49.5ZM198.59 49.5H198.967V47.0455H198.59V49.5ZM198.782 46.6364C198.929 46.6364 199.05 46.5213 199.05 46.3807C199.05 46.2401 198.929 46.125 198.782 46.125C198.635 46.125 198.513 46.2401 198.513 46.3807C198.513 46.5213 198.635 46.6364 198.782 46.6364ZM200.655 49.5511C201.198 49.5511 201.556 49.2188 201.62 48.7841H201.243C201.173 49.0526 200.949 49.2124 200.655 49.2124C200.208 49.2124 199.92 48.8416 199.92 48.2727C199.92 47.7166 200.214 47.3523 200.655 47.3523C200.987 47.3523 201.186 47.5568 201.243 47.7805H201.62C201.556 47.3203 201.166 47.0135 200.649 47.0135C199.984 47.0135 199.543 47.5376 199.543 48.2855C199.543 49.0206 199.965 49.5511 200.655 49.5511ZM202.172 49.5H202.549V47.0455H202.172V49.5ZM202.363 46.6364C202.51 46.6364 202.632 46.5213 202.632 46.3807C202.632 46.2401 202.51 46.125 202.363 46.125C202.216 46.125 202.095 46.2401 202.095 46.3807C202.095 46.5213 202.216 46.6364 202.363 46.6364ZM203.617 46.2273H203.239V49.5H203.617V46.2273ZM204.307 49.5H204.684V47.0455H204.307V49.5ZM204.499 46.6364C204.646 46.6364 204.768 46.5213 204.768 46.3807C204.768 46.2401 204.646 46.125 204.499 46.125C204.352 46.125 204.231 46.2401 204.231 46.3807C204.231 46.5213 204.352 46.6364 204.499 46.6364ZM206.098 49.5575C206.526 49.5575 206.749 49.3274 206.826 49.1676H206.845V49.5H207.223V47.8828C207.223 47.103 206.628 47.0135 206.315 47.0135C205.944 47.0135 205.522 47.1413 205.33 47.5888L205.688 47.7166C205.772 47.5376 205.968 47.3459 206.328 47.3459C206.674 47.3459 206.845 47.5297 206.845 47.8445V47.8572C206.845 48.0394 206.66 48.0234 206.213 48.081C205.757 48.1401 205.26 48.2408 205.26 48.8033C205.26 49.2827 205.631 49.5575 206.098 49.5575ZM206.155 49.2188C205.855 49.2188 205.637 49.0845 205.637 48.8224C205.637 48.5348 205.899 48.4453 206.193 48.407C206.353 48.3878 206.781 48.343 206.845 48.2663V48.6115C206.845 48.9183 206.602 49.2188 206.155 49.2188ZM208.978 47.0455H208.454V46.4574H208.077V47.0455H207.706V47.3651H208.077V48.8991C208.077 49.3274 208.422 49.532 208.742 49.532C208.882 49.532 208.972 49.5064 209.023 49.4872L208.946 49.1484C208.914 49.1548 208.863 49.1676 208.78 49.1676C208.614 49.1676 208.454 49.1165 208.454 48.7969V47.3651H208.978V47.0455ZM209.546 49.5H209.923V47.0455H209.546V49.5ZM209.737 46.6364C209.884 46.6364 210.006 46.5213 210.006 46.3807C210.006 46.2401 209.884 46.125 209.737 46.125C209.59 46.125 209.469 46.2401 209.469 46.3807C209.469 46.5213 209.59 46.6364 209.737 46.6364ZM211.611 49.5511C212.275 49.5511 212.723 49.0462 212.723 48.2855C212.723 47.5185 212.275 47.0135 211.611 47.0135C210.946 47.0135 210.498 47.5185 210.498 48.2855C210.498 49.0462 210.946 49.5511 211.611 49.5511ZM211.611 49.2124C211.106 49.2124 210.876 48.7777 210.876 48.2855C210.876 47.7933 211.106 47.3523 211.611 47.3523C212.116 47.3523 212.346 47.7933 212.346 48.2855C212.346 48.7777 212.116 49.2124 211.611 49.2124ZM213.676 48.0234C213.676 47.5952 213.941 47.3523 214.302 47.3523C214.652 47.3523 214.865 47.5808 214.865 47.9659V49.5H215.242V47.9403C215.242 47.3139 214.908 47.0135 214.411 47.0135C214.04 47.0135 213.81 47.1797 213.695 47.429H213.663V47.0455H213.299V49.5H213.676V48.0234Z" fill="#1D212A" fill-opacity="0.9"/>
<path d="M64.6147 55.6364H64.0863L62.9954 56.3608V56.8977L64.0607 56.1903H64.0863V60H64.6147V55.6364ZM65.8697 60H68.6225V59.5312H66.5941V59.4972L67.5742 58.4489C68.3242 57.6456 68.5458 57.2706 68.5458 56.7869C68.5458 56.1136 68.0004 55.5767 67.2333 55.5767C66.4684 55.5767 65.8867 56.0966 65.8867 56.8636H66.3896C66.3896 56.3672 66.7113 56.0369 67.2163 56.0369C67.6893 56.0369 68.0515 56.3267 68.0515 56.7869C68.0515 57.1896 67.815 57.4879 67.31 58.0398L65.8697 59.6165V60ZM70.9769 60.0597C71.8228 60.0597 72.4513 59.5291 72.4513 58.8153C72.4513 58.2614 72.1232 57.8587 71.5735 57.767V57.733C72.0146 57.5987 72.2894 57.2365 72.2894 56.7443C72.2894 56.1264 71.8015 55.5767 70.994 55.5767C70.2397 55.5767 69.6133 56.0412 69.5877 56.7273H70.0991C70.1183 56.2926 70.5316 56.0369 70.9854 56.0369C71.467 56.0369 71.7781 56.3288 71.7781 56.7699C71.7781 57.2301 71.418 57.5284 70.9002 57.5284H70.5508V57.9972H70.9002C71.5629 57.9972 71.9315 58.3338 71.9315 58.8153C71.9315 59.2777 71.5288 59.5909 70.9684 59.5909C70.4634 59.5909 70.0629 59.331 70.0309 58.9091H69.494C69.5259 59.5952 70.131 60.0597 70.9769 60.0597ZM73.2205 59.1051H75.2745V60H75.7773V59.1051H76.3739V58.6364H75.7773V55.6364H75.1381L73.2205 58.6705V59.1051ZM75.2745 58.6364H73.7915V58.6023L75.2404 56.3097H75.2745V58.6364ZM78.536 60.0597C79.367 60.0597 79.9764 59.446 79.9764 58.6108C79.9764 57.7649 79.3883 57.1449 78.5872 57.1449C78.2931 57.1449 78.0076 57.2493 77.8287 57.392H77.8031L77.9565 56.1051H79.7804V55.6364H77.5133L77.2491 57.7841L77.7434 57.8438C77.9245 57.7138 78.2335 57.62 78.502 57.6222C79.0581 57.6264 79.465 58.0483 79.465 58.6193C79.465 59.1797 79.073 59.5909 78.536 59.5909C78.0886 59.5909 77.7328 59.3033 77.6923 58.9091H77.1809C77.2129 59.5739 77.786 60.0597 78.536 60.0597Z" fill="#1D212A" fill-opacity="0.9"/>
<path d="M98.1801 55.6364H97.6517L96.5608 56.3608V56.8977L97.6262 56.1903H97.6517V60H98.1801V55.6364ZM99.4351 60H102.188V59.5312H100.16V59.4972L101.14 58.4489C101.89 57.6456 102.111 57.2706 102.111 56.7869C102.111 56.1136 101.566 55.5767 100.799 55.5767C100.034 55.5767 99.4521 56.0966 99.4521 56.8636H99.955C99.955 56.3672 100.277 56.0369 100.782 56.0369C101.255 56.0369 101.617 56.3267 101.617 56.7869C101.617 57.1896 101.38 57.4879 100.875 58.0398L99.4351 59.6165V60ZM104.542 60.0597C105.388 60.0597 106.017 59.5291 106.017 58.8153C106.017 58.2614 105.689 57.8587 105.139 57.767V57.733C105.58 57.5987 105.855 57.2365 105.855 56.7443C105.855 56.1264 105.367 55.5767 104.559 55.5767C103.805 55.5767 103.179 56.0412 103.153 56.7273H103.665C103.684 56.2926 104.097 56.0369 104.551 56.0369C105.032 56.0369 105.343 56.3288 105.343 56.7699C105.343 57.2301 104.983 57.5284 104.466 57.5284H104.116V57.9972H104.466C105.128 57.9972 105.497 58.3338 105.497 58.8153C105.497 59.2777 105.094 59.5909 104.534 59.5909C104.029 59.5909 103.628 59.331 103.596 58.9091H103.059C103.091 59.5952 103.696 60.0597 104.542 60.0597ZM106.786 59.1051H108.84V60H109.343V59.1051H109.939V58.6364H109.343V55.6364H108.704L106.786 58.6705V59.1051ZM108.84 58.6364H107.357V58.6023L108.806 56.3097H108.84V58.6364ZM112.101 60.0597C112.932 60.0597 113.542 59.446 113.542 58.6108C113.542 57.7649 112.954 57.1449 112.153 57.1449C111.859 57.1449 111.573 57.2493 111.394 57.392H111.369L111.522 56.1051H113.346V55.6364H111.079L110.815 57.7841L111.309 57.8438C111.49 57.7138 111.799 57.62 112.067 57.6222C112.623 57.6264 113.03 58.0483 113.03 58.6193C113.03 59.1797 112.638 59.5909 112.101 59.5909C111.654 59.5909 111.298 59.3033 111.258 58.9091H110.746C110.778 59.5739 111.351 60.0597 112.101 60.0597ZM115.837 60.0597C116.719 60.0703 117.294 59.4055 117.294 58.5938C117.294 57.75 116.67 57.1449 115.922 57.1449C115.473 57.1449 115.087 57.3643 114.848 57.7244H114.814C114.816 56.6612 115.23 56.0455 115.905 56.0455C116.366 56.0455 116.642 56.3352 116.741 56.7273H117.26C117.154 56.0497 116.638 55.5767 115.905 55.5767C114.923 55.5767 114.32 56.446 114.32 57.9886C114.32 59.6016 115.121 60.0511 115.837 60.0597ZM115.837 59.5909C115.29 59.5909 114.889 59.1243 114.891 58.6023C114.893 58.0803 115.313 57.6136 115.854 57.6136C116.389 57.6136 116.783 58.0526 116.783 58.5938C116.783 59.1477 116.372 59.5909 115.837 59.5909ZM118.269 60H118.823L120.766 56.1307V55.6364H117.97V56.1051H120.22V56.1392L118.269 60ZM122.87 60.0597C123.741 60.0597 124.349 59.5504 124.353 58.8409C124.349 58.2891 123.98 57.8203 123.509 57.733V57.7074C123.918 57.6009 124.187 57.2003 124.191 56.7358C124.187 56.071 123.628 55.5767 122.87 55.5767C122.103 55.5767 121.545 56.071 121.549 56.7358C121.545 57.2003 121.813 57.6009 122.231 57.7074V57.733C121.751 57.8203 121.383 58.2891 121.387 58.8409C121.383 59.5504 121.99 60.0597 122.87 60.0597ZM122.87 59.5909C122.271 59.5909 121.903 59.2841 121.907 58.8153C121.903 58.3232 122.31 57.9716 122.87 57.9716C123.422 57.9716 123.829 58.3232 123.833 58.8153C123.829 59.2841 123.46 59.5909 122.87 59.5909ZM122.87 57.5199C122.393 57.5199 122.056 57.2216 122.06 56.7699C122.056 56.3267 122.38 56.0369 122.87 56.0369C123.351 56.0369 123.675 56.3267 123.68 56.7699C123.675 57.2216 123.339 57.5199 122.87 57.5199ZM126.559 55.5767C125.672 55.5661 125.101 56.233 125.101 57.0341C125.101 57.8778 125.723 58.483 126.473 58.483C126.925 58.483 127.309 58.2614 127.547 57.9034H127.581C127.581 58.9773 127.164 59.5909 126.491 59.5909C126.03 59.5909 125.749 59.3011 125.655 58.9006H125.135C125.238 59.5909 125.758 60.0597 126.491 60.0597C127.471 60.0597 128.076 59.1903 128.076 57.6392C128.076 56.0369 127.275 55.5852 126.559 55.5767ZM126.559 56.0455C127.104 56.0455 127.505 56.5142 127.505 57.0256C127.505 57.5455 127.079 58.0142 126.542 58.0142C126.005 58.0142 125.613 57.5795 125.613 57.0341C125.613 56.4886 126.022 56.0455 126.559 56.0455ZM130.448 55.6364H129.919L128.828 56.3608V56.8977L129.894 56.1903H129.919V60H130.448V55.6364ZM131.958 60L132.397 58.7642H134.161L134.6 60H135.154L133.552 55.6364H133.007L131.404 60H131.958ZM132.563 58.2955L133.262 56.3267H133.296L133.995 58.2955H132.563Z" fill="#1D212A" fill-opacity="0.9"/>
<path d="M153.525 55.6364H152.996L151.906 56.3608V56.8977L152.971 56.1903H152.996V60H153.525V55.6364ZM154.78 60H157.533V59.5312H155.504V59.4972L156.484 58.4489C157.234 57.6456 157.456 57.2706 157.456 56.7869C157.456 56.1136 156.911 55.5767 156.143 55.5767C155.379 55.5767 154.797 56.0966 154.797 56.8636H155.3C155.3 56.3672 155.621 56.0369 156.126 56.0369C156.599 56.0369 156.962 56.3267 156.962 56.7869C156.962 57.1896 156.725 57.4879 156.22 58.0398L154.78 59.6165V60Z" fill="#1D212A" fill-opacity="0.9"/>
<path d="M172.725 60H174.301C175.333 60 175.759 59.4972 175.759 58.8409C175.759 58.1506 175.282 57.7756 174.881 57.75V57.7074C175.256 57.6051 175.588 57.358 175.588 56.7955C175.588 56.1562 175.162 55.6364 174.25 55.6364H172.725V60ZM173.253 59.5312V58.0142H174.327C174.898 58.0142 175.256 58.3977 175.256 58.8409C175.256 59.2244 174.992 59.5312 174.301 59.5312H173.253ZM173.253 57.554V56.1051H174.25C174.83 56.1051 175.085 56.4119 175.085 56.7955C175.085 57.2557 174.71 57.554 174.233 57.554H173.253ZM177.522 60.0767C178.093 60.0767 178.391 59.7699 178.494 59.5568H178.519V60H179.022V57.8438C179.022 56.804 178.229 56.6847 177.812 56.6847C177.317 56.6847 176.755 56.8551 176.499 57.4517L176.976 57.6222C177.087 57.3835 177.349 57.1278 177.829 57.1278C178.291 57.1278 178.519 57.3729 178.519 57.7926V57.8097C178.519 58.0526 178.272 58.0312 177.675 58.108C177.068 58.1868 176.405 58.321 176.405 59.071C176.405 59.7102 176.9 60.0767 177.522 60.0767ZM177.599 59.625C177.198 59.625 176.908 59.446 176.908 59.0966C176.908 58.7131 177.258 58.5938 177.65 58.5426C177.863 58.517 178.434 58.4574 178.519 58.3551V58.8153C178.519 59.2244 178.195 59.625 177.599 59.625ZM180.443 58.0312C180.443 57.4602 180.796 57.1364 181.278 57.1364C181.744 57.1364 182.028 57.4411 182.028 57.9545V60H182.531V57.9205C182.531 57.0852 182.085 56.6847 181.423 56.6847C180.928 56.6847 180.622 56.9062 180.468 57.2386H180.426V56.7273H179.94V60H180.443V58.0312ZM186.185 61.2273V56.7273H185.699V57.2472H185.64C185.529 57.0767 185.333 56.6847 184.694 56.6847C183.867 56.6847 183.296 57.3409 183.296 58.3722C183.296 59.4119 183.867 60.0682 184.685 60.0682C185.316 60.0682 185.529 59.6761 185.64 59.4972H185.682V61.2273H186.185ZM185.691 58.3636C185.691 59.1051 185.359 59.6165 184.753 59.6165C184.123 59.6165 183.799 59.0625 183.799 58.3636C183.799 57.6733 184.114 57.1364 184.753 57.1364C185.367 57.1364 185.691 57.6307 185.691 58.3636ZM189.168 58.6619C189.168 59.2756 188.699 59.5568 188.324 59.5568C187.907 59.5568 187.609 59.25 187.609 58.7727V56.7273H187.106V58.8068C187.106 59.642 187.549 60.0426 188.163 60.0426C188.657 60.0426 188.981 59.7784 189.134 59.446H189.168V60H189.671V56.7273H189.168V58.6619ZM191.964 60.0682C192.629 60.0682 193.115 59.7358 193.268 59.2415L192.782 59.1051C192.655 59.446 192.358 59.6165 191.964 59.6165C191.374 59.6165 190.967 59.2351 190.944 58.5341H193.319V58.321C193.319 57.1023 192.595 56.6847 191.913 56.6847C191.027 56.6847 190.439 57.3835 190.439 58.3892C190.439 59.3949 191.018 60.0682 191.964 60.0682ZM190.944 58.0994C190.978 57.5902 191.338 57.1364 191.913 57.1364C192.459 57.1364 192.808 57.5455 192.808 58.0994H190.944ZM195.959 57.8949H194.05V58.3636H195.959V57.8949ZM199.52 56.7273H198.975L198.071 59.3352H198.037L197.134 56.7273H196.588L197.799 60H198.31L199.52 56.7273ZM200.184 60H200.687V56.7273H200.184V60ZM200.44 56.1818C200.636 56.1818 200.797 56.0284 200.797 55.8409C200.797 55.6534 200.636 55.5 200.44 55.5C200.244 55.5 200.082 55.6534 200.082 55.8409C200.082 56.0284 200.244 56.1818 200.44 56.1818ZM202.111 55.6364H201.608V60H202.111V55.6364ZM203.534 55.6364H203.032V60H203.534V55.6364ZM205.828 60.0682C206.492 60.0682 206.978 59.7358 207.131 59.2415L206.646 59.1051C206.518 59.446 206.222 59.6165 205.828 59.6165C205.237 59.6165 204.83 59.2351 204.807 58.5341H207.183V58.321C207.183 57.1023 206.458 56.6847 205.776 56.6847C204.89 56.6847 204.302 57.3835 204.302 58.3892C204.302 59.3949 204.881 60.0682 205.828 60.0682ZM204.807 58.0994C204.841 57.5902 205.201 57.1364 205.776 57.1364C206.322 57.1364 206.671 57.5455 206.671 58.0994H204.807ZM209.823 57.8949H207.913V58.3636H209.823V57.8949ZM210.954 60L211.393 58.7642H213.158L213.597 60H214.15L212.548 55.6364H212.003L210.4 60H210.954ZM211.56 58.2955L212.258 56.3267H212.293L212.991 58.2955H211.56ZM216.083 61.2955C216.867 61.2955 217.498 60.9375 217.498 60.0938V56.7273H217.012V57.2472H216.961C216.85 57.0767 216.646 56.6847 216.006 56.6847C215.18 56.6847 214.609 57.3409 214.609 58.3466C214.609 59.3693 215.205 59.9489 215.998 59.9489C216.637 59.9489 216.842 59.5739 216.952 59.3949H216.995V60.0597C216.995 60.6051 216.611 60.8523 216.083 60.8523C215.489 60.8523 215.28 60.5391 215.146 60.358L214.745 60.6392C214.949 60.9822 215.352 61.2955 216.083 61.2955ZM216.066 59.4972C215.435 59.4972 215.111 59.0199 215.111 58.3381C215.111 57.6733 215.427 57.1364 216.066 57.1364C216.68 57.1364 217.003 57.6307 217.003 58.3381C217.003 59.0625 216.671 59.4972 216.066 59.4972ZM219.79 60.0682C220.455 60.0682 220.941 59.7358 221.094 59.2415L220.609 59.1051C220.481 59.446 220.185 59.6165 219.79 59.6165C219.2 59.6165 218.793 59.2351 218.77 58.5341H221.146V58.321C221.146 57.1023 220.421 56.6847 219.739 56.6847C218.853 56.6847 218.265 57.3835 218.265 58.3892C218.265 59.3949 218.844 60.0682 219.79 60.0682ZM218.77 58.0994C218.804 57.5902 219.164 57.1364 219.739 57.1364C220.285 57.1364 220.634 57.5455 220.634 58.0994H218.77ZM222.413 58.0312C222.413 57.4602 222.767 57.1364 223.248 57.1364C223.715 57.1364 223.998 57.4411 223.998 57.9545V60H224.501V57.9205C224.501 57.0852 224.056 56.6847 223.393 56.6847C222.899 56.6847 222.592 56.9062 222.439 57.2386H222.396V56.7273H221.91V60H222.413V58.0312ZM226.75 60.0682C227.474 60.0682 227.951 59.625 228.037 59.0455H227.534C227.44 59.4034 227.142 59.6165 226.75 59.6165C226.153 59.6165 225.77 59.1222 225.77 58.3636C225.77 57.6222 226.162 57.1364 226.75 57.1364C227.193 57.1364 227.457 57.4091 227.534 57.7074H228.037C227.951 57.0938 227.432 56.6847 226.741 56.6847C225.855 56.6847 225.267 57.3835 225.267 58.3807C225.267 59.3608 225.829 60.0682 226.75 60.0682ZM230.144 60.0682C230.809 60.0682 231.294 59.7358 231.448 59.2415L230.962 59.1051C230.834 59.446 230.538 59.6165 230.144 59.6165C229.554 59.6165 229.147 59.2351 229.123 58.5341H231.499V58.321C231.499 57.1023 230.775 56.6847 230.093 56.6847C229.206 56.6847 228.618 57.3835 228.618 58.3892C228.618 59.3949 229.198 60.0682 230.144 60.0682ZM229.123 58.0994C229.157 57.5902 229.517 57.1364 230.093 57.1364C230.638 57.1364 230.988 57.5455 230.988 58.0994H229.123Z" fill="#1D212A" fill-opacity="0.9"/>
<path d="M90.4399 70.6364H89.9115L88.8206 71.3608V71.8977L89.8859 71.1903H89.9115V75H90.4399V70.6364ZM91.6949 75H94.4477V74.5312H92.4193V74.4972L93.3994 73.4489C94.1494 72.6456 94.371 72.2706 94.371 71.7869C94.371 71.1136 93.8256 70.5767 93.0585 70.5767C92.2936 70.5767 91.7119 71.0966 91.7119 71.8636H92.2148C92.2148 71.3672 92.5365 71.0369 93.0415 71.0369C93.5145 71.0369 93.8767 71.3267 93.8767 71.7869C93.8767 72.1896 93.6402 72.4879 93.1352 73.0398L91.6949 74.6165V75ZM96.8021 75.0597C97.648 75.0597 98.2765 74.5291 98.2765 73.8153C98.2765 73.2614 97.9484 72.8587 97.3987 72.767V72.733C97.8398 72.5987 98.1146 72.2365 98.1146 71.7443C98.1146 71.1264 97.6267 70.5767 96.8192 70.5767C96.0649 70.5767 95.4385 71.0412 95.4129 71.7273H95.9243C95.9434 71.2926 96.3568 71.0369 96.8106 71.0369C97.2922 71.0369 97.6032 71.3288 97.6032 71.7699C97.6032 72.2301 97.2432 72.5284 96.7254 72.5284H96.376V72.9972H96.7254C97.3881 72.9972 97.7567 73.3338 97.7567 73.8153C97.7567 74.2777 97.354 74.5909 96.7936 74.5909C96.2886 74.5909 95.8881 74.331 95.8561 73.9091H95.3192C95.3511 74.5952 95.9562 75.0597 96.8021 75.0597ZM99.0457 74.1051H101.1V75H101.603V74.1051H102.199V73.6364H101.603V70.6364H100.963L99.0457 73.6705V74.1051ZM101.1 73.6364H99.6167V73.6023L101.066 71.3097H101.1V73.6364Z" fill="#1D212A" fill-opacity="0.9"/>
<path d="M114.369 75.0597C115.2 75.0597 115.809 74.446 115.809 73.6108C115.809 72.7649 115.221 72.1449 114.42 72.1449C114.126 72.1449 113.841 72.2493 113.662 72.392H113.636L113.79 71.1051H115.613V70.6364H113.346L113.082 72.7841L113.576 72.8438C113.758 72.7138 114.066 72.62 114.335 72.6222C114.891 72.6264 115.298 73.0483 115.298 73.6193C115.298 74.1797 114.906 74.5909 114.369 74.5909C113.922 74.5909 113.566 74.3033 113.525 73.9091H113.014C113.046 74.5739 113.619 75.0597 114.369 75.0597ZM118.19 70.6364H117.661L116.571 71.3608V71.8977L117.636 71.1903H117.661V75H118.19V70.6364ZM119.445 75H122.198V74.5312H120.169V74.4972L121.149 73.4489C121.899 72.6456 122.121 72.2706 122.121 71.7869C122.121 71.1136 121.576 70.5767 120.809 70.5767C120.044 70.5767 119.462 71.0966 119.462 71.8636H119.965C119.965 71.3672 120.286 71.0369 120.791 71.0369C121.264 71.0369 121.627 71.3267 121.627 71.7869C121.627 72.1896 121.39 72.4879 120.885 73.0398L119.445 74.6165V75ZM124.552 75.0597C125.398 75.0597 126.027 74.5291 126.027 73.8153C126.027 73.2614 125.698 72.8587 125.149 72.767V72.733C125.59 72.5987 125.865 72.2365 125.865 71.7443C125.865 71.1264 125.377 70.5767 124.569 70.5767C123.815 70.5767 123.188 71.0412 123.163 71.7273H123.674C123.693 71.2926 124.107 71.0369 124.561 71.0369C125.042 71.0369 125.353 71.3288 125.353 71.7699C125.353 72.2301 124.993 72.5284 124.475 72.5284H124.126V72.9972H124.475C125.138 72.9972 125.507 73.3338 125.507 73.8153C125.507 74.2777 125.104 74.5909 124.544 74.5909C124.039 74.5909 123.638 74.331 123.606 73.9091H123.069C123.101 74.5952 123.706 75.0597 124.552 75.0597Z" fill="#1D212A" fill-opacity="0.9"/>
<path d="M136.888 74.1051H138.942V75H139.445V74.1051H140.042V73.6364H139.445V70.6364H138.806L136.888 73.6705V74.1051ZM138.942 73.6364H137.46V73.6023L138.908 71.3097H138.942V73.6364ZM142.204 75.0597C143.035 75.0597 143.644 74.446 143.644 73.6108C143.644 72.7649 143.056 72.1449 142.255 72.1449C141.961 72.1449 141.676 72.2493 141.497 72.392H141.471L141.624 71.1051H143.448V70.6364H141.181L140.917 72.7841L141.411 72.8438C141.593 72.7138 141.901 72.62 142.17 72.6222C142.726 72.6264 143.133 73.0483 143.133 73.6193C143.133 74.1797 142.741 74.5909 142.204 74.5909C141.757 74.5909 141.401 74.3033 141.36 73.9091H140.849C140.881 74.5739 141.454 75.0597 142.204 75.0597ZM146.025 70.6364H145.496L144.406 71.3608V71.8977L145.471 71.1903H145.496V75H146.025V70.6364ZM147.28 75H150.033V74.5312H148.004V74.4972L148.984 73.4489C149.734 72.6456 149.956 72.2706 149.956 71.7869C149.956 71.1136 149.411 70.5767 148.643 70.5767C147.879 70.5767 147.297 71.0966 147.297 71.8636H147.8C147.8 71.3672 148.121 71.0369 148.626 71.0369C149.099 71.0369 149.462 71.3267 149.462 71.7869C149.462 72.1896 149.225 72.4879 148.72 73.0398L147.28 74.6165V75Z" fill="#1D212A" fill-opacity="0.9"/>
<path d="M161.894 75.0597C162.74 75.0597 163.368 74.5291 163.368 73.8153C163.368 73.2614 163.04 72.8587 162.491 72.767V72.733C162.932 72.5987 163.206 72.2365 163.206 71.7443C163.206 71.1264 162.718 70.5767 161.911 70.5767C161.157 70.5767 160.53 71.0412 160.505 71.7273H161.016C161.035 71.2926 161.449 71.0369 161.902 71.0369C162.384 71.0369 162.695 71.3288 162.695 71.7699C162.695 72.2301 162.335 72.5284 161.817 72.5284H161.468V72.9972H161.817C162.48 72.9972 162.848 73.3338 162.848 73.8153C162.848 74.2777 162.446 74.5909 161.885 74.5909C161.38 74.5909 160.98 74.331 160.948 73.9091H160.411C160.443 74.5952 161.048 75.0597 161.894 75.0597ZM164.138 74.1051H166.191V75H166.694V74.1051H167.291V73.6364H166.694V70.6364H166.055L164.138 73.6705V74.1051ZM166.191 73.6364H164.709V73.6023L166.157 71.3097H166.191V73.6364ZM169.453 75.0597C170.284 75.0597 170.893 74.446 170.893 73.6108C170.893 72.7649 170.305 72.1449 169.504 72.1449C169.21 72.1449 168.925 72.2493 168.746 72.392H168.72L168.873 71.1051H170.697V70.6364H168.43L168.166 72.7841L168.66 72.8438C168.842 72.7138 169.15 72.62 169.419 72.6222C169.975 72.6264 170.382 73.0483 170.382 73.6193C170.382 74.1797 169.99 74.5909 169.453 74.5909C169.006 74.5909 168.65 74.3033 168.609 73.9091H168.098C168.13 74.5739 168.703 75.0597 169.453 75.0597ZM173.189 75.0597C174.071 75.0703 174.646 74.4055 174.646 73.5938C174.646 72.75 174.022 72.1449 173.274 72.1449C172.824 72.1449 172.439 72.3643 172.2 72.7244H172.166C172.168 71.6612 172.581 71.0455 173.257 71.0455C173.717 71.0455 173.994 71.3352 174.092 71.7273H174.612C174.505 71.0497 173.99 70.5767 173.257 70.5767C172.275 70.5767 171.672 71.446 171.672 72.9886C171.672 74.6016 172.473 75.0511 173.189 75.0597ZM173.189 74.5909C172.641 74.5909 172.241 74.1243 172.243 73.6023C172.245 73.0803 172.665 72.6136 173.206 72.6136C173.741 72.6136 174.135 73.0526 174.135 73.5938C174.135 74.1477 173.723 74.5909 173.189 74.5909Z" fill="#1D212A" fill-opacity="0.9"/>
<path d="M185.303 75H185.857L187.8 71.1307V70.6364H185.005V71.1051H187.255V71.1392L185.303 75ZM189.904 75.0597C190.776 75.0597 191.383 74.5504 191.387 73.8409C191.383 73.2891 191.014 72.8203 190.543 72.733V72.7074C190.952 72.6009 191.221 72.2003 191.225 71.7358C191.221 71.071 190.663 70.5767 189.904 70.5767C189.137 70.5767 188.579 71.071 188.583 71.7358C188.579 72.2003 188.847 72.6009 189.265 72.7074V72.733C188.786 72.8203 188.417 73.2891 188.421 73.8409C188.417 74.5504 189.024 75.0597 189.904 75.0597ZM189.904 74.5909C189.305 74.5909 188.937 74.2841 188.941 73.8153C188.937 73.3232 189.344 72.9716 189.904 72.9716C190.456 72.9716 190.863 73.3232 190.867 73.8153C190.863 74.2841 190.494 74.5909 189.904 74.5909ZM189.904 72.5199C189.427 72.5199 189.09 72.2216 189.094 71.7699C189.09 71.3267 189.414 71.0369 189.904 71.0369C190.386 71.0369 190.71 71.3267 190.714 71.7699C190.71 72.2216 190.373 72.5199 189.904 72.5199ZM193.593 70.5767C192.706 70.5661 192.135 71.233 192.135 72.0341C192.135 72.8778 192.758 73.483 193.508 73.483C193.959 73.483 194.343 73.2614 194.581 72.9034H194.616C194.616 73.9773 194.198 74.5909 193.525 74.5909C193.064 74.5909 192.783 74.3011 192.689 73.9006H192.17C192.272 74.5909 192.792 75.0597 193.525 75.0597C194.505 75.0597 195.11 74.1903 195.11 72.6392C195.11 71.0369 194.309 70.5852 193.593 70.5767ZM193.593 71.0455C194.138 71.0455 194.539 71.5142 194.539 72.0256C194.539 72.5455 194.113 73.0142 193.576 73.0142C193.039 73.0142 192.647 72.5795 192.647 72.0341C192.647 71.4886 193.056 71.0455 193.593 71.0455ZM197.482 70.6364H196.953L195.863 71.3608V71.8977L196.928 71.1903H196.953V75H197.482V70.6364Z" fill="#1D212A" fill-opacity="0.9"/>
<path d="M211.072 75L211.511 73.7642H213.275L213.714 75H214.268L212.665 70.6364H212.12L210.518 75H211.072ZM211.677 73.2955L212.376 71.3267H212.41L213.109 73.2955H211.677ZM216.2 70.6364H215.671L214.58 71.3608V71.8977L215.646 71.1903H215.671V75H216.2V70.6364ZM217.455 75H220.207V74.5312H218.179V74.4972L219.159 73.4489C219.909 72.6456 220.131 72.2706 220.131 71.7869C220.131 71.1136 219.585 70.5767 218.818 70.5767C218.053 70.5767 217.472 71.0966 217.472 71.8636H217.975C217.975 71.3672 218.296 71.0369 218.801 71.0369C219.274 71.0369 219.636 71.3267 219.636 71.7869C219.636 72.1896 219.4 72.4879 218.895 73.0398L217.455 74.6165V75Z" fill="#1D212A" fill-opacity="0.9"/>
<path d="M59.5 90V82.5H112V90" stroke="#1D212A" stroke-opacity="0.9" stroke-width="0.25"/>
<path d="M61 75V67.5H226V75" stroke="#1D212A" stroke-opacity="0.9" stroke-width="0.25"/>
<path d="M22 60V43.5H238V60" stroke="#1D212A" stroke-opacity="0.9" stroke-width="0.25"/>
<path d="M82 67.5V75" stroke="#1D212A" stroke-opacity="0.9" stroke-width="0.25"/>
<path d="M85 67.5V75" stroke="#1D212A" stroke-opacity="0.9" stroke-width="0.25"/>
<path d="M106 67.5V75" stroke="#1D212A" stroke-opacity="0.9" stroke-width="0.25"/>
<path d="M109 67.5V75" stroke="#1D212A" stroke-opacity="0.9" stroke-width="0.25"/>
<path d="M130 67.5V75" stroke="#1D212A" stroke-opacity="0.9" stroke-width="0.25"/>
<path d="M133 67.5V75" stroke="#1D212A" stroke-opacity="0.9" stroke-width="0.25"/>
<path d="M154 67.5V75" stroke="#1D212A" stroke-opacity="0.9" stroke-width="0.25"/>
<path d="M157 67.5V75" stroke="#1D212A" stroke-opacity="0.9" stroke-width="0.25"/>
<path d="M178 67.5V75" stroke="#1D212A" stroke-opacity="0.9" stroke-width="0.25"/>
<path d="M181 67.5V75" stroke="#1D212A" stroke-opacity="0.9" stroke-width="0.25"/>
<path d="M202 67.5V75" stroke="#1D212A" stroke-opacity="0.9" stroke-width="0.25"/>
<path d="M205 67.5V75" stroke="#1D212A" stroke-opacity="0.9" stroke-width="0.25"/>
<path d="M55 43.5V60" stroke="#1D212A" stroke-opacity="0.9" stroke-width="0.25"/>
<path d="M22 52.5L238 52.5" stroke="#1D212A" stroke-opacity="0.9" stroke-width="0.25"/>
<path d="M88 43.5V60" stroke="#1D212A" stroke-opacity="0.9" stroke-width="0.25"/>
<path d="M143.5 43.5V60" stroke="#1D212A" stroke-opacity="0.9" stroke-width="0.25"/>
<path d="M166 43.5V60" stroke="#1D212A" stroke-opacity="0.9" stroke-width="0.25"/>
</g>
<defs>
<filter id="filter0_ddd_890:32879" x="-4" y="0" width="268" height="136" filterUnits="userSpaceOnUse" color-interpolation-filters="sRGB">
<feFlood flood-opacity="0" result="BackgroundImageFix"/>
<feColorMatrix in="SourceAlpha" type="matrix" values="0 0 0 0 0 0 0 0 0 0 0 0 0 0 0 0 0 0 127 0" result="hardAlpha"/>
<feMorphology radius="1" operator="dilate" in="SourceAlpha" result="effect1_dropShadow_890:32879"/>
<feOffset dy="5"/>
<feGaussianBlur stdDeviation="9.5"/>
<feColorMatrix type="matrix" values="0 0 0 0 0.113725 0 0 0 0 0.129412 0 0 0 0 0.164706 0 0 0 0.08 0"/>
<feBlend mode="normal" in2="BackgroundImageFix" result="effect1_dropShadow_890:32879"/>
<feColorMatrix in="SourceAlpha" type="matrix" values="0 0 0 0 0 0 0 0 0 0 0 0 0 0 0 0 0 0 127 0" result="hardAlpha"/>
<feMorphology radius="1" operator="erode" in="SourceAlpha" result="effect2_dropShadow_890:32879"/>
<feOffset dy="3"/>
<feGaussianBlur stdDeviation="2.5"/>
<feColorMatrix type="matrix" values="0 0 0 0 0.113725 0 0 0 0 0.129412 0 0 0 0 0.164706 0 0 0 0.09 0"/>
<feBlend mode="normal" in2="effect1_dropShadow_890:32879" result="effect2_dropShadow_890:32879"/>
<feColorMatrix in="SourceAlpha" type="matrix" values="0 0 0 0 0 0 0 0 0 0 0 0 0 0 0 0 0 0 127 0" result="hardAlpha"/>
<feMorphology radius="0.5" operator="dilate" in="SourceAlpha" result="effect3_dropShadow_890:32879"/>
<feOffset/>
<feColorMatrix type="matrix" values="0 0 0 0 0.113725 0 0 0 0 0.129412 0 0 0 0 0.164706 0 0 0 0.12 0"/>
<feBlend mode="normal" in2="effect2_dropShadow_890:32879" result="effect3_dropShadow_890:32879"/>
<feBlend mode="normal" in="SourceGraphic" in2="effect3_dropShadow_890:32879" result="shape"/>
</filter>
</defs>
</svg>
